<?xml version="1.0" encoding="us-ascii" standalone="no"?><svg xmlns="http://www.w3.org/2000/svg" xmlns:xlink="http://www.w3.org/1999/xlink" contentStyleType="text/css" height="730px" preserveAspectRatio="none" style="width:1561px;height:730px;background:#DDDDDD;" version="1.1" viewBox="0 0 1561 730" width="1561px" zoomAndPan="magnify"><defs/><g><rect fill="#DDDDDD" height="730" style="stroke:none;stroke-width:1.0;" width="1561" x="0" y="0"/><!--class AdminEventAdapter--><g id="elem_AdminEventAdapter"><rect codeLine="7" fill="#F1F1F1" height="178.3477" id="AdminEventAdapter" rx="3.5" ry="3.5" style="stroke:#181818;stroke-width:0.5;" width="336" x="706.5" y="19.5"/><ellipse cx="807.75" cy="35.5" fill="#ADD1B2" rx="11" ry="11" style="stroke:#181818;stroke-width:1.0;"/><path d="M810.5156,31.375 Q810.6719,31.1563 810.8594,31.0469 Q811.0469,30.9375 811.2656,30.9375 Q811.6406,30.9375 811.875,31.2031 Q812.1094,31.4531 812.1094,32.0625 L812.1094,33.5156 Q812.1094,34.125 811.875,34.3906 Q811.6406,34.6563 811.2656,34.6563 Q810.9219,34.6563 810.7188,34.4531 Q810.5156,34.2656 810.4063,33.75 Q810.3594,33.3906 810.1719,33.2031 Q809.8438,32.8281 809.2344,32.6094 Q808.625,32.3906 808,32.3906 Q807.2344,32.3906 806.5938,32.7188 Q805.9688,33.0469 805.4688,33.7969 Q804.9844,34.5469 804.9844,35.5781 L804.9844,36.6719 Q804.9844,37.9063 805.875,38.7344 Q806.7656,39.5469 808.3594,39.5469 Q809.2969,39.5469 809.9531,39.2969 Q810.3438,39.1406 810.7656,38.7031 Q811.0313,38.4375 811.1719,38.3594 Q811.3281,38.2813 811.5313,38.2813 Q811.8594,38.2813 812.1094,38.5469 Q812.375,38.7969 812.375,39.1406 Q812.375,39.4844 812.0313,39.8906 Q811.5313,40.4688 810.7344,40.7969 Q809.6563,41.25 808.3594,41.25 Q806.8438,41.25 805.6406,40.625 Q804.6563,40.125 803.9688,39.0625 Q803.2813,37.9844 803.2813,36.7031 L803.2813,35.5469 Q803.2813,34.2188 803.8906,33.0781 Q804.5156,31.9219 805.6094,31.3125 Q806.7031,30.6875 807.9375,30.6875 Q808.6719,30.6875 809.3125,30.8594 Q809.9688,31.0156 810.5156,31.375 Z " fill="#000000"/><text fill="#000000" font-family="sans-serif" font-size="14" lengthAdjust="spacing" textLength="125" x="828.25" y="41.2969">AdminEventAdapter</text><line style="stroke:#181818;stroke-width:0.5;" x1="707.5" x2="1041.5" y1="51.5" y2="51.5"/><text fill="#000000" font-family="sans-serif" font-size="14" lengthAdjust="spacing" textLength="177" x="712.5" y="70.6074">eventRefresh: RecyclerView</text><text fill="#000000" font-family="sans-serif" font-size="14" lengthAdjust="spacing" textLength="180" x="712.5" y="89.2285">listener: OnItemClickListener</text><text fill="#000000" font-family="sans-serif" font-size="14" lengthAdjust="spacing" textLength="87" x="712.5" y="107.8496">itemCount: int</text><line style="stroke:#181818;stroke-width:0.5;" x1="707.5" x2="1041.5" y1="115.3633" y2="115.3633"/><text fill="#000000" font-family="sans-serif" font-size="14" lengthAdjust="spacing" textLength="195" x="712.5" y="134.4707">+AdminEventAdapter(Context):</text><text fill="#000000" font-family="sans-serif" font-size="14" lengthAdjust="spacing" textLength="119" x="712.5" y="153.0918">-loadEvents(): void</text><text fill="#000000" font-family="sans-serif" font-size="14" lengthAdjust="spacing" textLength="266" x="712.5" y="171.7129">+onBindViewHolder(EventHolder, int): void</text><text fill="#000000" font-family="sans-serif" font-size="14" lengthAdjust="spacing" textLength="324" x="712.5" y="190.334">+onCreateViewHolder(ViewGroup, int): EventHolder</text></g><!--class AdminEventFragment--><g id="elem_AdminEventFragment"><rect codeLine="16" fill="#F1F1F1" height="122.4844" id="AdminEventFragment" rx="3.5" ry="3.5" style="stroke:#181818;stroke-width:0.5;" width="378" x="242" y="123.5"/><ellipse cx="358.75" cy="139.5" fill="#ADD1B2" rx="11" ry="11" style="stroke:#181818;stroke-width:1.0;"/><path d="M361.5156,135.375 Q361.6719,135.1563 361.8594,135.0469 Q362.0469,134.9375 362.2656,134.9375 Q362.6406,134.9375 362.875,135.2031 Q363.1094,135.4531 363.1094,136.0625 L363.1094,137.5156 Q363.1094,138.125 362.875,138.3906 Q362.6406,138.6563 362.2656,138.6563 Q361.9219,138.6563 361.7188,138.4531 Q361.5156,138.2656 361.4063,137.75 Q361.3594,137.3906 361.1719,137.2031 Q360.8438,136.8281 360.2344,136.6094 Q359.625,136.3906 359,136.3906 Q358.2344,136.3906 357.5938,136.7188 Q356.9688,137.0469 356.4688,137.7969 Q355.9844,138.5469 355.9844,139.5781 L355.9844,140.6719 Q355.9844,141.9063 356.875,142.7344 Q357.7656,143.5469 359.3594,143.5469 Q360.2969,143.5469 360.9531,143.2969 Q361.3438,143.1406 361.7656,142.7031 Q362.0313,142.4375 362.1719,142.3594 Q362.3281,142.2813 362.5313,142.2813 Q362.8594,142.2813 363.1094,142.5469 Q363.375,142.7969 363.375,143.1406 Q363.375,143.4844 363.0313,143.8906 Q362.5313,144.4688 361.7344,144.7969 Q360.6563,145.25 359.3594,145.25 Q357.8438,145.25 356.6406,144.625 Q355.6563,144.125 354.9688,143.0625 Q354.2813,141.9844 354.2813,140.7031 L354.2813,139.5469 Q354.2813,138.2188 354.8906,137.0781 Q355.5156,135.9219 356.6094,135.3125 Q357.7031,134.6875 358.9375,134.6875 Q359.6719,134.6875 360.3125,134.8594 Q360.9688,135.0156 361.5156,135.375 Z " fill="#000000"/><text fill="#000000" font-family="sans-serif" font-size="14" lengthAdjust="spacing" textLength="136" x="379.25" y="145.2969">AdminEventFragment</text><line style="stroke:#181818;stroke-width:0.5;" x1="243" x2="619" y1="155.5" y2="155.5"/><line style="stroke:#181818;stroke-width:0.5;" x1="243" x2="619" y1="163.5" y2="163.5"/><text fill="#000000" font-family="sans-serif" font-size="14" lengthAdjust="spacing" textLength="158" x="248" y="182.6074">+AdminEventFragment():</text><text fill="#000000" font-family="sans-serif" font-size="14" lengthAdjust="spacing" textLength="366" x="248" y="201.2285">+onCreateView(LayoutInflater, ViewGroup, Bundle): View?</text><text fill="#000000" font-family="sans-serif" font-size="14" lengthAdjust="spacing" textLength="160" x="248" y="219.8496">+onItemClick(Event): void</text><text fill="#000000" font-family="sans-serif" font-size="14" lengthAdjust="spacing" textLength="229" x="248" y="238.4707">+onViewCreated(View, Bundle): void</text></g><!--class AdminHomeActivity--><g id="elem_AdminHomeActivity"><rect codeLine="22" fill="#F1F1F1" height="85.2422" id="AdminHomeActivity" rx="3.5" ry="3.5" style="stroke:#181818;stroke-width:0.5;" width="175" x="7" y="360"/><ellipse cx="32.8" cy="376" fill="#ADD1B2" rx="11" ry="11" style="stroke:#181818;stroke-width:1.0;"/><path d="M35.5656,371.875 Q35.7219,371.6563 35.9094,371.5469 Q36.0969,371.4375 36.3156,371.4375 Q36.6906,371.4375 36.925,371.7031 Q37.1594,371.9531 37.1594,372.5625 L37.1594,374.0156 Q37.1594,374.625 36.925,374.8906 Q36.6906,375.1563 36.3156,375.1563 Q35.9719,375.1563 35.7688,374.9531 Q35.5656,374.7656 35.4563,374.25 Q35.4094,373.8906 35.2219,373.7031 Q34.8938,373.3281 34.2844,373.1094 Q33.675,372.8906 33.05,372.8906 Q32.2844,372.8906 31.6437,373.2188 Q31.0187,373.5469 30.5187,374.2969 Q30.0344,375.0469 30.0344,376.0781 L30.0344,377.1719 Q30.0344,378.4063 30.925,379.2344 Q31.8156,380.0469 33.4094,380.0469 Q34.3469,380.0469 35.0031,379.7969 Q35.3938,379.6406 35.8156,379.2031 Q36.0813,378.9375 36.2219,378.8594 Q36.3781,378.7813 36.5813,378.7813 Q36.9094,378.7813 37.1594,379.0469 Q37.425,379.2969 37.425,379.6406 Q37.425,379.9844 37.0813,380.3906 Q36.5813,380.9688 35.7844,381.2969 Q34.7063,381.75 33.4094,381.75 Q31.8937,381.75 30.6906,381.125 Q29.7062,380.625 29.0187,379.5625 Q28.3312,378.4844 28.3312,377.2031 L28.3312,376.0469 Q28.3312,374.7188 28.9406,373.5781 Q29.5656,372.4219 30.6594,371.8125 Q31.7531,371.1875 32.9875,371.1875 Q33.7219,371.1875 34.3625,371.3594 Q35.0188,371.5156 35.5656,371.875 Z " fill="#000000"/><text fill="#000000" font-family="sans-serif" font-size="14" lengthAdjust="spacing" textLength="119" x="49.2" y="381.7969">AdminHomeActivity</text><line style="stroke:#181818;stroke-width:0.5;" x1="8" x2="181" y1="392" y2="392"/><line style="stroke:#181818;stroke-width:0.5;" x1="8" x2="181" y1="400" y2="400"/><text fill="#000000" font-family="sans-serif" font-size="14" lengthAdjust="spacing" textLength="141" x="13" y="419.1074">+AdminHomeActivity():</text><text fill="#000000" font-family="sans-serif" font-size="14" lengthAdjust="spacing" textLength="163" x="13" y="437.7285">#onCreate(Bundle?): void</text></g><!--class AdminHomeFragment--><g id="elem_AdminHomeFragment"><rect codeLine="26" fill="#F1F1F1" height="103.8633" id="AdminHomeFragment" rx="3.5" ry="3.5" style="stroke:#181818;stroke-width:0.5;" width="378" x="242" y="280.5"/><ellipse cx="358.75" cy="296.5" fill="#ADD1B2" rx="11" ry="11" style="stroke:#181818;stroke-width:1.0;"/><path d="M361.5156,292.375 Q361.6719,292.1563 361.8594,292.0469 Q362.0469,291.9375 362.2656,291.9375 Q362.6406,291.9375 362.875,292.2031 Q363.1094,292.4531 363.1094,293.0625 L363.1094,294.5156 Q363.1094,295.125 362.875,295.3906 Q362.6406,295.6563 362.2656,295.6563 Q361.9219,295.6563 361.7188,295.4531 Q361.5156,295.2656 361.4063,294.75 Q361.3594,294.3906 361.1719,294.2031 Q360.8438,293.8281 360.2344,293.6094 Q359.625,293.3906 359,293.3906 Q358.2344,293.3906 357.5938,293.7188 Q356.9688,294.0469 356.4688,294.7969 Q355.9844,295.5469 355.9844,296.5781 L355.9844,297.6719 Q355.9844,298.9063 356.875,299.7344 Q357.7656,300.5469 359.3594,300.5469 Q360.2969,300.5469 360.9531,300.2969 Q361.3438,300.1406 361.7656,299.7031 Q362.0313,299.4375 362.1719,299.3594 Q362.3281,299.2813 362.5313,299.2813 Q362.8594,299.2813 363.1094,299.5469 Q363.375,299.7969 363.375,300.1406 Q363.375,300.4844 363.0313,300.8906 Q362.5313,301.4688 361.7344,301.7969 Q360.6563,302.25 359.3594,302.25 Q357.8438,302.25 356.6406,301.625 Q355.6563,301.125 354.9688,300.0625 Q354.2813,298.9844 354.2813,297.7031 L354.2813,296.5469 Q354.2813,295.2188 354.8906,294.0781 Q355.5156,292.9219 356.6094,292.3125 Q357.7031,291.6875 358.9375,291.6875 Q359.6719,291.6875 360.3125,291.8594 Q360.9688,292.0156 361.5156,292.375 Z " fill="#000000"/><text fill="#000000" font-family="sans-serif" font-size="14" lengthAdjust="spacing" textLength="136" x="379.25" y="302.2969">AdminHomeFragment</text><line style="stroke:#181818;stroke-width:0.5;" x1="243" x2="619" y1="312.5" y2="312.5"/><line style="stroke:#181818;stroke-width:0.5;" x1="243" x2="619" y1="320.5" y2="320.5"/><text fill="#000000" font-family="sans-serif" font-size="14" lengthAdjust="spacing" textLength="158" x="248" y="339.6074">+AdminHomeFragment():</text><text fill="#000000" font-family="sans-serif" font-size="14" lengthAdjust="spacing" textLength="366" x="248" y="358.2285">+onCreateView(LayoutInflater, ViewGroup, Bundle): View?</text><text fill="#000000" font-family="sans-serif" font-size="14" lengthAdjust="spacing" textLength="229" x="248" y="376.8496">+onViewCreated(View, Bundle): void</text></g><!--class AdminImagesFragment--><g id="elem_AdminImagesFragment"><rect codeLine="31" fill="#F1F1F1" height="103.8633" id="AdminImagesFragment" rx="3.5" ry="3.5" style="stroke:#181818;stroke-width:0.5;" width="378" x="242" y="419.5"/><ellipse cx="354.25" cy="435.5" fill="#ADD1B2" rx="11" ry="11" style="stroke:#181818;stroke-width:1.0;"/><path d="M357.0156,431.375 Q357.1719,431.1563 357.3594,431.0469 Q357.5469,430.9375 357.7656,430.9375 Q358.1406,430.9375 358.375,431.2031 Q358.6094,431.4531 358.6094,432.0625 L358.6094,433.5156 Q358.6094,434.125 358.375,434.3906 Q358.1406,434.6563 357.7656,434.6563 Q357.4219,434.6563 357.2188,434.4531 Q357.0156,434.2656 356.9063,433.75 Q356.8594,433.3906 356.6719,433.2031 Q356.3438,432.8281 355.7344,432.6094 Q355.125,432.3906 354.5,432.3906 Q353.7344,432.3906 353.0938,432.7188 Q352.4688,433.0469 351.9688,433.7969 Q351.4844,434.5469 351.4844,435.5781 L351.4844,436.6719 Q351.4844,437.9063 352.375,438.7344 Q353.2656,439.5469 354.8594,439.5469 Q355.7969,439.5469 356.4531,439.2969 Q356.8438,439.1406 357.2656,438.7031 Q357.5313,438.4375 357.6719,438.3594 Q357.8281,438.2813 358.0313,438.2813 Q358.3594,438.2813 358.6094,438.5469 Q358.875,438.7969 358.875,439.1406 Q358.875,439.4844 358.5313,439.8906 Q358.0313,440.4688 357.2344,440.7969 Q356.1563,441.25 354.8594,441.25 Q353.3438,441.25 352.1406,440.625 Q351.1563,440.125 350.4688,439.0625 Q349.7813,437.9844 349.7813,436.7031 L349.7813,435.5469 Q349.7813,434.2188 350.3906,433.0781 Q351.0156,431.9219 352.1094,431.3125 Q353.2031,430.6875 354.4375,430.6875 Q355.1719,430.6875 355.8125,430.8594 Q356.4688,431.0156 357.0156,431.375 Z " fill="#000000"/><text fill="#000000" font-family="sans-serif" font-size="14" lengthAdjust="spacing" textLength="145" x="374.75" y="441.2969">AdminImagesFragment</text><line style="stroke:#181818;stroke-width:0.5;" x1="243" x2="619" y1="451.5" y2="451.5"/><line style="stroke:#181818;stroke-width:0.5;" x1="243" x2="619" y1="459.5" y2="459.5"/><text fill="#000000" font-family="sans-serif" font-size="14" lengthAdjust="spacing" textLength="167" x="248" y="478.6074">+AdminImagesFragment():</text><text fill="#000000" font-family="sans-serif" font-size="14" lengthAdjust="spacing" textLength="366" x="248" y="497.2285">+onCreateView(LayoutInflater, ViewGroup, Bundle): View?</text><text fill="#000000" font-family="sans-serif" font-size="14" lengthAdjust="spacing" textLength="229" x="248" y="515.8496">+onViewCreated(View, Bundle): void</text></g><!--class AdminProfilesAdapter--><g id="elem_AdminProfilesAdapter"><rect codeLine="36" fill="#F1F1F1" height="159.7266" id="AdminProfilesAdapter" rx="3.5" ry="3.5" style="stroke:#181818;stroke-width:0.5;" width="340" x="704.5" y="563.5"/><ellipse cx="802.25" cy="579.5" fill="#ADD1B2" rx="11" ry="11" style="stroke:#181818;stroke-width:1.0;"/><path d="M805.0156,575.375 Q805.1719,575.1563 805.3594,575.0469 Q805.5469,574.9375 805.7656,574.9375 Q806.1406,574.9375 806.375,575.2031 Q806.6094,575.4531 806.6094,576.0625 L806.6094,577.5156 Q806.6094,578.125 806.375,578.3906 Q806.1406,578.6563 805.7656,578.6563 Q805.4219,578.6563 805.2188,578.4531 Q805.0156,578.2656 804.9063,577.75 Q804.8594,577.3906 804.6719,577.2031 Q804.3438,576.8281 803.7344,576.6094 Q803.125,576.3906 802.5,576.3906 Q801.7344,576.3906 801.0938,576.7188 Q800.4688,577.0469 799.9688,577.7969 Q799.4844,578.5469 799.4844,579.5781 L799.4844,580.6719 Q799.4844,581.9063 800.375,582.7344 Q801.2656,583.5469 802.8594,583.5469 Q803.7969,583.5469 804.4531,583.2969 Q804.8438,583.1406 805.2656,582.7031 Q805.5313,582.4375 805.6719,582.3594 Q805.8281,582.2813 806.0313,582.2813 Q806.3594,582.2813 806.6094,582.5469 Q806.875,582.7969 806.875,583.1406 Q806.875,583.4844 806.5313,583.8906 Q806.0313,584.4688 805.2344,584.7969 Q804.1563,585.25 802.8594,585.25 Q801.3438,585.25 800.1406,584.625 Q799.1563,584.125 798.4688,583.0625 Q797.7813,581.9844 797.7813,580.7031 L797.7813,579.5469 Q797.7813,578.2188 798.3906,577.0781 Q799.0156,575.9219 800.1094,575.3125 Q801.2031,574.6875 802.4375,574.6875 Q803.1719,574.6875 803.8125,574.8594 Q804.4688,575.0156 805.0156,575.375 Z " fill="#000000"/><text fill="#000000" font-family="sans-serif" font-size="14" lengthAdjust="spacing" textLength="136" x="822.75" y="585.2969">AdminProfilesAdapter</text><line style="stroke:#181818;stroke-width:0.5;" x1="705.5" x2="1043.5" y1="595.5" y2="595.5"/><text fill="#000000" font-family="sans-serif" font-size="14" lengthAdjust="spacing" textLength="181" x="710.5" y="614.6074">profileRefresh: RecyclerView</text><text fill="#000000" font-family="sans-serif" font-size="14" lengthAdjust="spacing" textLength="87" x="710.5" y="633.2285">itemCount: int</text><line style="stroke:#181818;stroke-width:0.5;" x1="705.5" x2="1043.5" y1="640.7422" y2="640.7422"/><text fill="#000000" font-family="sans-serif" font-size="14" lengthAdjust="spacing" textLength="206" x="710.5" y="659.8496">+AdminProfilesAdapter(Context):</text><text fill="#000000" font-family="sans-serif" font-size="14" lengthAdjust="spacing" textLength="328" x="710.5" y="678.4707">+onCreateViewHolder(ViewGroup, int): ProfileHolder</text><text fill="#000000" font-family="sans-serif" font-size="14" lengthAdjust="spacing" textLength="123" x="710.5" y="697.0918">-loadProfiles(): void</text><text fill="#000000" font-family="sans-serif" font-size="14" lengthAdjust="spacing" textLength="270" x="710.5" y="715.7129">+onBindViewHolder(ProfileHolder, int): void</text></g><!--class AdminProfilesFragment--><g id="elem_AdminProfilesFragment"><rect codeLine="44" fill="#F1F1F1" height="103.8633" id="AdminProfilesFragment" rx="3.5" ry="3.5" style="stroke:#181818;stroke-width:0.5;" width="378" x="242" y="569.5"/><ellipse cx="353.25" cy="585.5" fill="#ADD1B2" rx="11" ry="11" style="stroke:#181818;stroke-width:1.0;"/><path d="M356.0156,581.375 Q356.1719,581.1563 356.3594,581.0469 Q356.5469,580.9375 356.7656,580.9375 Q357.1406,580.9375 357.375,581.2031 Q357.6094,581.4531 357.6094,582.0625 L357.6094,583.5156 Q357.6094,584.125 357.375,584.3906 Q357.1406,584.6563 356.7656,584.6563 Q356.4219,584.6563 356.2188,584.4531 Q356.0156,584.2656 355.9063,583.75 Q355.8594,583.3906 355.6719,583.2031 Q355.3438,582.8281 354.7344,582.6094 Q354.125,582.3906 353.5,582.3906 Q352.7344,582.3906 352.0938,582.7188 Q351.4688,583.0469 350.9688,583.7969 Q350.4844,584.5469 350.4844,585.5781 L350.4844,586.6719 Q350.4844,587.9063 351.375,588.7344 Q352.2656,589.5469 353.8594,589.5469 Q354.7969,589.5469 355.4531,589.2969 Q355.8438,589.1406 356.2656,588.7031 Q356.5313,588.4375 356.6719,588.3594 Q356.8281,588.2813 357.0313,588.2813 Q357.3594,588.2813 357.6094,588.5469 Q357.875,588.7969 357.875,589.1406 Q357.875,589.4844 357.5313,589.8906 Q357.0313,590.4688 356.2344,590.7969 Q355.1563,591.25 353.8594,591.25 Q352.3438,591.25 351.1406,590.625 Q350.1563,590.125 349.4688,589.0625 Q348.7813,587.9844 348.7813,586.7031 L348.7813,585.5469 Q348.7813,584.2188 349.3906,583.0781 Q350.0156,581.9219 351.1094,581.3125 Q352.2031,580.6875 353.4375,580.6875 Q354.1719,580.6875 354.8125,580.8594 Q355.4688,581.0156 356.0156,581.375 Z " fill="#000000"/><text fill="#000000" font-family="sans-serif" font-size="14" lengthAdjust="spacing" textLength="147" x="373.75" y="591.2969">AdminProfilesFragment</text><line style="stroke:#181818;stroke-width:0.5;" x1="243" x2="619" y1="601.5" y2="601.5"/><line style="stroke:#181818;stroke-width:0.5;" x1="243" x2="619" y1="609.5" y2="609.5"/><text fill="#000000" font-family="sans-serif" font-size="14" lengthAdjust="spacing" textLength="169" x="248" y="628.6074">+AdminProfilesFragment():</text><text fill="#000000" font-family="sans-serif" font-size="14" lengthAdjust="spacing" textLength="229" x="248" y="647.2285">+onViewCreated(View, Bundle): void</text><text fill="#000000" font-family="sans-serif" font-size="14" lengthAdjust="spacing" textLength="366" x="248" y="665.8496">+onCreateView(LayoutInflater, ViewGroup, Bundle): View?</text></g><!--class EventHolder--><g id="elem_EventHolder"><rect codeLine="49" fill="#F1F1F1" height="85.2422" id="EventHolder" rx="3.5" ry="3.5" style="stroke:#181818;stroke-width:0.5;" width="140" x="1155.5" y="7"/><ellipse cx="1184.45" cy="23" fill="#ADD1B2" rx="11" ry="11" style="stroke:#181818;stroke-width:1.0;"/><path d="M1187.2156,18.875 Q1187.3719,18.6563 1187.5594,18.5469 Q1187.7469,18.4375 1187.9656,18.4375 Q1188.3406,18.4375 1188.575,18.7031 Q1188.8094,18.9531 1188.8094,19.5625 L1188.8094,21.0156 Q1188.8094,21.625 1188.575,21.8906 Q1188.3406,22.1563 1187.9656,22.1563 Q1187.6219,22.1563 1187.4188,21.9531 Q1187.2156,21.7656 1187.1063,21.25 Q1187.0594,20.8906 1186.8719,20.7031 Q1186.5438,20.3281 1185.9344,20.1094 Q1185.325,19.8906 1184.7,19.8906 Q1183.9344,19.8906 1183.2938,20.2188 Q1182.6688,20.5469 1182.1688,21.2969 Q1181.6844,22.0469 1181.6844,23.0781 L1181.6844,24.1719 Q1181.6844,25.4063 1182.575,26.2344 Q1183.4656,27.0469 1185.0594,27.0469 Q1185.9969,27.0469 1186.6531,26.7969 Q1187.0438,26.6406 1187.4656,26.2031 Q1187.7313,25.9375 1187.8719,25.8594 Q1188.0281,25.7813 1188.2313,25.7813 Q1188.5594,25.7813 1188.8094,26.0469 Q1189.075,26.2969 1189.075,26.6406 Q1189.075,26.9844 1188.7313,27.3906 Q1188.2313,27.9688 1187.4344,28.2969 Q1186.3563,28.75 1185.0594,28.75 Q1183.5438,28.75 1182.3406,28.125 Q1181.3563,27.625 1180.6688,26.5625 Q1179.9813,25.4844 1179.9813,24.2031 L1179.9813,23.0469 Q1179.9813,21.7188 1180.5906,20.5781 Q1181.2156,19.4219 1182.3094,18.8125 Q1183.4031,18.1875 1184.6375,18.1875 Q1185.3719,18.1875 1186.0125,18.3594 Q1186.6688,18.5156 1187.2156,18.875 Z " fill="#000000"/><text fill="#000000" font-family="sans-serif" font-size="14" lengthAdjust="spacing" textLength="77" x="1201.55" y="28.7969">EventHolder</text><line style="stroke:#181818;stroke-width:0.5;" x1="1156.5" x2="1294.5" y1="39" y2="39"/><line style="stroke:#181818;stroke-width:0.5;" x1="1156.5" x2="1294.5" y1="47" y2="47"/><text fill="#000000" font-family="sans-serif" font-size="14" lengthAdjust="spacing" textLength="128" x="1161.5" y="66.1074">+EventHolder(View):</text><text fill="#000000" font-family="sans-serif" font-size="14" lengthAdjust="spacing" textLength="123" x="1161.5" y="84.7285">+bindView(int): void</text></g><!--class OnItemClickListener--><g id="elem_OnItemClickListener"><rect codeLine="53" fill="#F1F1F1" height="79.2031" id="OnItemClickListener" rx="3.5" ry="3.5" style="stroke:#181818;stroke-width:0.5;" width="172" x="1382" y="123"/><ellipse cx="1402.4" cy="145.291" fill="#B4A7E5" rx="11" ry="11" style="stroke:#181818;stroke-width:1.0;"/><path d="M1403.3531,141.9316 L1403.3531,148.5879 L1405.0719,148.5879 Q1405.6813,148.5879 1405.9469,148.8223 Q1406.2125,149.0566 1406.2125,149.4473 Q1406.2125,149.8223 1405.9469,150.0566 Q1405.6813,150.291 1405.0719,150.291 L1399.9313,150.291 Q1399.3219,150.291 1399.0563,150.0566 Q1398.7906,149.8223 1398.7906,149.4316 Q1398.7906,149.0566 1399.0563,148.8223 Q1399.3219,148.5879 1399.9313,148.5879 L1401.65,148.5879 L1401.65,141.9316 L1399.9313,141.9316 Q1399.3219,141.9316 1399.0563,141.6973 Q1398.7906,141.4629 1398.7906,141.0723 Q1398.7906,140.6973 1399.0563,140.4629 Q1399.3219,140.2285 1399.9313,140.2285 L1405.0719,140.2285 Q1405.6813,140.2285 1405.9469,140.4629 Q1406.2125,140.6973 1406.2125,141.0723 Q1406.2125,141.4629 1405.9469,141.6973 Q1405.6813,141.9316 1405.0719,141.9316 L1403.3531,141.9316 Z " fill="#000000"/><text fill="#000000" font-family="sans-serif" font-size="12" font-style="italic" lengthAdjust="spacing" textLength="61" x="1451.1" y="140.9492">&#171;interface&#187;</text><text fill="#000000" font-family="sans-serif" font-size="14" font-style="italic" lengthAdjust="spacing" textLength="128" x="1417.6" y="159.0684">OnItemClickListener</text><line style="stroke:#181818;stroke-width:0.5;" x1="1383" x2="1553" y1="167.582" y2="167.582"/><line style="stroke:#181818;stroke-width:0.5;" x1="1383" x2="1553" y1="175.582" y2="175.582"/><text fill="#000000" font-family="sans-serif" font-size="14" lengthAdjust="spacing" textLength="160" x="1388" y="194.6895">+onItemClick(Event): void</text></g><!--class ProfileHolder--><g id="elem_ProfileHolder"><rect codeLine="56" fill="#F1F1F1" height="85.2422" id="ProfileHolder" rx="3.5" ry="3.5" style="stroke:#181818;stroke-width:0.5;" width="144" x="1153.5" y="601"/><ellipse cx="1182.45" cy="617" fill="#ADD1B2" rx="11" ry="11" style="stroke:#181818;stroke-width:1.0;"/><path d="M1185.2156,612.875 Q1185.3719,612.6563 1185.5594,612.5469 Q1185.7469,612.4375 1185.9656,612.4375 Q1186.3406,612.4375 1186.575,612.7031 Q1186.8094,612.9531 1186.8094,613.5625 L1186.8094,615.0156 Q1186.8094,615.625 1186.575,615.8906 Q1186.3406,616.1563 1185.9656,616.1563 Q1185.6219,616.1563 1185.4188,615.9531 Q1185.2156,615.7656 1185.1063,615.25 Q1185.0594,614.8906 1184.8719,614.7031 Q1184.5438,614.3281 1183.9344,614.1094 Q1183.325,613.8906 1182.7,613.8906 Q1181.9344,613.8906 1181.2938,614.2188 Q1180.6688,614.5469 1180.1688,615.2969 Q1179.6844,616.0469 1179.6844,617.0781 L1179.6844,618.1719 Q1179.6844,619.4063 1180.575,620.2344 Q1181.4656,621.0469 1183.0594,621.0469 Q1183.9969,621.0469 1184.6531,620.7969 Q1185.0438,620.6406 1185.4656,620.2031 Q1185.7313,619.9375 1185.8719,619.8594 Q1186.0281,619.7813 1186.2313,619.7813 Q1186.5594,619.7813 1186.8094,620.0469 Q1187.075,620.2969 1187.075,620.6406 Q1187.075,620.9844 1186.7313,621.3906 Q1186.2313,621.9688 1185.4344,622.2969 Q1184.3563,622.75 1183.0594,622.75 Q1181.5438,622.75 1180.3406,622.125 Q1179.3563,621.625 1178.6688,620.5625 Q1177.9813,619.4844 1177.9813,618.2031 L1177.9813,617.0469 Q1177.9813,615.7188 1178.5906,614.5781 Q1179.2156,613.4219 1180.3094,612.8125 Q1181.4031,612.1875 1182.6375,612.1875 Q1183.3719,612.1875 1184.0125,612.3594 Q1184.6688,612.5156 1185.2156,612.875 Z " fill="#000000"/><text fill="#000000" font-family="sans-serif" font-size="14" lengthAdjust="spacing" textLength="81" x="1199.55" y="622.7969">ProfileHolder</text><line style="stroke:#181818;stroke-width:0.5;" x1="1154.5" x2="1296.5" y1="633" y2="633"/><line style="stroke:#181818;stroke-width:0.5;" x1="1154.5" x2="1296.5" y1="641" y2="641"/><text fill="#000000" font-family="sans-serif" font-size="14" lengthAdjust="spacing" textLength="132" x="1159.5" y="660.1074">+ProfileHolder(View):</text><text fill="#000000" font-family="sans-serif" font-size="14" lengthAdjust="spacing" textLength="123" x="1159.5" y="678.7285">+bindView(int): void</text></g><!--class ViewAllImagesAdapter--><g id="elem_ViewAllImagesAdapter"><rect codeLine="60" fill="#F1F1F1" height="159.7266" id="ViewAllImagesAdapter" rx="3.5" ry="3.5" style="stroke:#181818;stroke-width:0.5;" width="389" x="680" y="368.5"/><ellipse cx="800.75" cy="384.5" fill="#ADD1B2" rx="11" ry="11" style="stroke:#181818;stroke-width:1.0;"/><path d="M803.5156,380.375 Q803.6719,380.1563 803.8594,380.0469 Q804.0469,379.9375 804.2656,379.9375 Q804.6406,379.9375 804.875,380.2031 Q805.1094,380.4531 805.1094,381.0625 L805.1094,382.5156 Q805.1094,383.125 804.875,383.3906 Q804.6406,383.6563 804.2656,383.6563 Q803.9219,383.6563 803.7188,383.4531 Q803.5156,383.2656 803.4063,382.75 Q803.3594,382.3906 803.1719,382.2031 Q802.8438,381.8281 802.2344,381.6094 Q801.625,381.3906 801,381.3906 Q800.2344,381.3906 799.5938,381.7188 Q798.9688,382.0469 798.4688,382.7969 Q797.9844,383.5469 797.9844,384.5781 L797.9844,385.6719 Q797.9844,386.9063 798.875,387.7344 Q799.7656,388.5469 801.3594,388.5469 Q802.2969,388.5469 802.9531,388.2969 Q803.3438,388.1406 803.7656,387.7031 Q804.0313,387.4375 804.1719,387.3594 Q804.3281,387.2813 804.5313,387.2813 Q804.8594,387.2813 805.1094,387.5469 Q805.375,387.7969 805.375,388.1406 Q805.375,388.4844 805.0313,388.8906 Q804.5313,389.4688 803.7344,389.7969 Q802.6563,390.25 801.3594,390.25 Q799.8438,390.25 798.6406,389.625 Q797.6563,389.125 796.9688,388.0625 Q796.2813,386.9844 796.2813,385.7031 L796.2813,384.5469 Q796.2813,383.2188 796.8906,382.0781 Q797.5156,380.9219 798.6094,380.3125 Q799.7031,379.6875 800.9375,379.6875 Q801.6719,379.6875 802.3125,379.8594 Q802.9688,380.0156 803.5156,380.375 Z " fill="#000000"/><text fill="#000000" font-family="sans-serif" font-size="14" lengthAdjust="spacing" textLength="139" x="821.25" y="390.2969">ViewAllImagesAdapter</text><line style="stroke:#181818;stroke-width:0.5;" x1="681" x2="1068" y1="400.5" y2="400.5"/><text fill="#000000" font-family="sans-serif" font-size="14" lengthAdjust="spacing" textLength="180" x="686" y="419.6074">imageRefresh: RecyclerView</text><text fill="#000000" font-family="sans-serif" font-size="14" lengthAdjust="spacing" textLength="87" x="686" y="438.2285">itemCount: int</text><line style="stroke:#181818;stroke-width:0.5;" x1="681" x2="1068" y1="445.7422" y2="445.7422"/><text fill="#000000" font-family="sans-serif" font-size="14" lengthAdjust="spacing" textLength="209" x="686" y="464.8496">+ViewAllImagesAdapter(Context):</text><text fill="#000000" font-family="sans-serif" font-size="14" lengthAdjust="spacing" textLength="121" x="686" y="483.4707">-loadImages(): void</text><text fill="#000000" font-family="sans-serif" font-size="14" lengthAdjust="spacing" textLength="377" x="686" y="502.0918">+onCreateViewHolder(ViewGroup, int): ViewAllImagesHolder</text><text fill="#000000" font-family="sans-serif" font-size="14" lengthAdjust="spacing" textLength="319" x="686" y="520.7129">+onBindViewHolder(ViewAllImagesHolder, int): void</text></g><!--class ViewAllImagesHolder--><g id="elem_ViewAllImagesHolder"><rect codeLine="68" fill="#F1F1F1" height="85.2422" id="ViewAllImagesHolder" rx="3.5" ry="3.5" style="stroke:#181818;stroke-width:0.5;" width="193" x="1129" y="406"/><ellipse cx="1157.95" cy="422" fill="#ADD1B2" rx="11" ry="11" style="stroke:#181818;stroke-width:1.0;"/><path d="M1160.7156,417.875 Q1160.8719,417.6563 1161.0594,417.5469 Q1161.2469,417.4375 1161.4656,417.4375 Q1161.8406,417.4375 1162.075,417.7031 Q1162.3094,417.9531 1162.3094,418.5625 L1162.3094,420.0156 Q1162.3094,420.625 1162.075,420.8906 Q1161.8406,421.1563 1161.4656,421.1563 Q1161.1219,421.1563 1160.9188,420.9531 Q1160.7156,420.7656 1160.6063,420.25 Q1160.5594,419.8906 1160.3719,419.7031 Q1160.0438,419.3281 1159.4344,419.1094 Q1158.825,418.8906 1158.2,418.8906 Q1157.4344,418.8906 1156.7938,419.2188 Q1156.1688,419.5469 1155.6688,420.2969 Q1155.1844,421.0469 1155.1844,422.0781 L1155.1844,423.1719 Q1155.1844,424.4063 1156.075,425.2344 Q1156.9656,426.0469 1158.5594,426.0469 Q1159.4969,426.0469 1160.1531,425.7969 Q1160.5438,425.6406 1160.9656,425.2031 Q1161.2313,424.9375 1161.3719,424.8594 Q1161.5281,424.7813 1161.7313,424.7813 Q1162.0594,424.7813 1162.3094,425.0469 Q1162.575,425.2969 1162.575,425.6406 Q1162.575,425.9844 1162.2313,426.3906 Q1161.7313,426.9688 1160.9344,427.2969 Q1159.8563,427.75 1158.5594,427.75 Q1157.0438,427.75 1155.8406,427.125 Q1154.8563,426.625 1154.1688,425.5625 Q1153.4813,424.4844 1153.4813,423.2031 L1153.4813,422.0469 Q1153.4813,420.7188 1154.0906,419.5781 Q1154.7156,418.4219 1155.8094,417.8125 Q1156.9031,417.1875 1158.1375,417.1875 Q1158.8719,417.1875 1159.5125,417.3594 Q1160.1688,417.5156 1160.7156,417.875 Z " fill="#000000"/><text fill="#000000" font-family="sans-serif" font-size="14" lengthAdjust="spacing" textLength="130" x="1175.05" y="427.7969">ViewAllImagesHolder</text><line style="stroke:#181818;stroke-width:0.5;" x1="1130" x2="1321" y1="438" y2="438"/><line style="stroke:#181818;stroke-width:0.5;" x1="1130" x2="1321" y1="446" y2="446"/><text fill="#000000" font-family="sans-serif" font-size="14" lengthAdjust="spacing" textLength="181" x="1135" y="465.1074">+ViewAllImagesHolder(View):</text><text fill="#000000" font-family="sans-serif" font-size="14" lengthAdjust="spacing" textLength="123" x="1135" y="483.7285">+bindView(int): void</text></g><!--link AdminEventAdapter to EventHolder--><g id="link_AdminEventAdapter_EventHolder"><path codeLine="73" d="M1042.55,43.67 C1082.35,43.67 1116.66,43.67 1149.27,43.67 " fill="none" id="AdminEventAdapter-to-EventHolder" style="stroke:#595959;stroke-width:1.0;stroke-dasharray:7.0,7.0;"/><polygon fill="#595959" points="1155.27,43.67,1146.27,39.67,1150.27,43.67,1146.27,47.67,1155.27,43.67" style="stroke:#595959;stroke-width:1.0;"/><text fill="#000000" font-family="sans-serif" font-size="13" lengthAdjust="spacing" textLength="36" x="1061.91" y="58.6983">create</text></g><!--reverse link EventHolder to AdminEventAdapter--><g id="link_EventHolder_AdminEventAdapter"><path codeLine="84" d="M1139.31,67.83 C1106.7,67.83 1082.4,67.83 1042.6,67.83 " fill="none" id="EventHolder-backto-AdminEventAdapter" style="stroke:#820000;stroke-width:1.0;"/><ellipse cx="1147.31" cy="67.83" fill="#DDDDDD" rx="8" ry="8" style="stroke:#820000;stroke-width:1.0;"/><line style="stroke:#820000;stroke-width:1.0;" x1="1139.31" x2="1155.31" y1="67.83" y2="67.83"/><line style="stroke:#820000;stroke-width:1.0;" x1="1147.31" x2="1147.31" y1="59.83" y2="75.83"/></g><!--link AdminEventAdapter to OnItemClickListener--><g id="link_AdminEventAdapter_OnItemClickListener"><path codeLine="74" d="M1054.59,178.88 C1165.12,178.88 1287.19,178.88 1375.74,178.88 " fill="none" id="AdminEventAdapter-OnItemClickListener" style="stroke:#595959;stroke-width:1.0;"/><polygon fill="#595959" points="1042.59,178.88,1048.59,182.88,1054.59,178.88,1048.59,174.88,1042.59,178.88" style="stroke:#595959;stroke-width:1.0;"/><polygon fill="#595959" points="1381.74,178.88,1372.74,174.88,1376.74,178.88,1372.74,182.88,1381.74,178.88" style="stroke:#595959;stroke-width:1.0;"/><text fill="#000000" font-family="sans-serif" font-size="13" lengthAdjust="spacing" textLength="7" x="1050.3652" y="196.4813">1</text><text fill="#000000" font-family="sans-serif" font-size="13" lengthAdjust="spacing" textLength="42" x="1331.8631" y="195.3736">listener</text><text fill="#000000" font-family="sans-serif" font-size="13" lengthAdjust="spacing" textLength="7" x="1349.3631" y="212.6646">1</text></g><!--reverse link OnItemClickListener to AdminEventAdapter--><g id="link_OnItemClickListener_AdminEventAdapter"><path codeLine="86" d="M1365.7,160.25 C1277.21,160.25 1153.28,160.25 1042.79,160.25 " fill="none" id="OnItemClickListener-backto-AdminEventAdapter" style="stroke:#820000;stroke-width:1.0;"/><ellipse cx="1373.7" cy="160.25" fill="#DDDDDD" rx="8" ry="8" style="stroke:#820000;stroke-width:1.0;"/><line style="stroke:#820000;stroke-width:1.0;" x1="1365.7" x2="1381.7" y1="160.25" y2="160.25"/><line style="stroke:#820000;stroke-width:1.0;" x1="1373.7" x2="1373.7" y1="152.25" y2="168.25"/></g><!--link AdminEventFragment to AdminEventAdapter--><g id="link_AdminEventFragment_AdminEventAdapter"><path codeLine="75" d="M620.05,160.5 C648.67,160.5 672.04,160.5 700.19,160.5 " fill="none" id="AdminEventFragment-to-AdminEventAdapter" style="stroke:#595959;stroke-width:1.0;stroke-dasharray:7.0,7.0;"/><polygon fill="#595959" points="706.19,160.5,697.19,156.5,701.19,160.5,697.19,164.5,706.19,160.5" style="stroke:#595959;stroke-width:1.0;"/><text fill="#000000" font-family="sans-serif" font-size="13" lengthAdjust="spacing" textLength="36" x="626.12" y="175.5283">create</text></g><!--link AdminEventFragment to OnItemClickListener--><g id="link_AdminEventFragment_OnItemClickListener"><path codeLine="76" d="M620.3,223.75 C919.47,223.75 1468,223.75 1468,223.75 C1468,223.75 1468,232.03 1468,220.33 " fill="none" id="AdminEventFragment-to-OnItemClickListener" style="stroke:#008200;stroke-width:1.0;stroke-dasharray:7.0,7.0;"/><polygon fill="none" points="1468,202.33,1462,220.33,1474,220.33,1468,202.33" style="stroke:#008200;stroke-width:1.0;"/></g><!--link AdminHomeActivity to AdminEventFragment--><g id="link_AdminHomeActivity_AdminEventFragment"><path codeLine="77" d="M95,359.95 C95,296.51 95,184.5 95,184.5 C95,184.5 159.48,184.5 235.89,184.5 " fill="none" id="AdminHomeActivity-to-AdminEventFragment" style="stroke:#595959;stroke-width:1.0;stroke-dasharray:7.0,7.0;"/><polygon fill="#595959" points="241.89,184.5,232.89,180.5,236.89,184.5,232.89,188.5,241.89,184.5" style="stroke:#595959;stroke-width:1.0;"/><text fill="#000000" font-family="sans-serif" font-size="13" lengthAdjust="spacing" textLength="36" x="58" y="213.8083">create</text></g><!--link AdminHomeActivity to AdminHomeFragment--><g id="link_AdminHomeActivity_AdminHomeFragment"><path codeLine="78" d="M182.03,372.25 C200.63,372.25 214.95,372.25 235.71,372.25 " fill="none" id="AdminHomeActivity-to-AdminHomeFragment" style="stroke:#595959;stroke-width:1.0;stroke-dasharray:7.0,7.0;"/><polygon fill="#595959" points="241.71,372.25,232.71,368.25,236.71,372.25,232.71,376.25,241.71,372.25" style="stroke:#595959;stroke-width:1.0;"/><text fill="#000000" font-family="sans-serif" font-size="13" lengthAdjust="spacing" textLength="36" x="212.87" y="387.2783">create</text></g><!--link AdminHomeActivity to AdminImagesFragment--><g id="link_AdminHomeActivity_AdminImagesFragment"><path codeLine="79" d="M182.03,432.25 C200.63,432.25 214.95,432.25 235.71,432.25 " fill="none" id="AdminHomeActivity-to-AdminImagesFragment" style="stroke:#595959;stroke-width:1.0;stroke-dasharray:7.0,7.0;"/><polygon fill="#595959" points="241.71,432.25,232.71,428.25,236.71,432.25,232.71,436.25,241.71,432.25" style="stroke:#595959;stroke-width:1.0;"/><text fill="#000000" font-family="sans-serif" font-size="13" lengthAdjust="spacing" textLength="36" x="174.87" y="447.2783">create</text></g><!--link AdminHomeActivity to AdminProfilesFragment--><g id="link_AdminHomeActivity_AdminProfilesFragment"><path codeLine="80" d="M95,445.25 C95,508.98 95,621.5 95,621.5 C95,621.5 159.48,621.5 235.89,621.5 " fill="none" id="AdminHomeActivity-to-AdminProfilesFragment" style="stroke:#595959;stroke-width:1.0;stroke-dasharray:7.0,7.0;"/><polygon fill="#595959" points="241.89,621.5,232.89,617.5,236.89,621.5,232.89,625.5,241.89,621.5" style="stroke:#595959;stroke-width:1.0;"/><text fill="#000000" font-family="sans-serif" font-size="13" lengthAdjust="spacing" textLength="36" x="58" y="621.8483">create</text></g><!--link AdminImagesFragment to ViewAllImagesAdapter--><g id="link_AdminImagesFragment_ViewAllImagesAdapter"><path codeLine="81" d="M620.05,471.5 C639.84,471.5 653.98,471.5 673.84,471.5 " fill="none" id="AdminImagesFragment-to-ViewAllImagesAdapter" style="stroke:#595959;stroke-width:1.0;stroke-dasharray:7.0,7.0;"/><polygon fill="#595959" points="679.84,471.5,670.84,467.5,674.84,471.5,670.84,475.5,679.84,471.5" style="stroke:#595959;stroke-width:1.0;"/><text fill="#000000" font-family="sans-serif" font-size="13" lengthAdjust="spacing" textLength="36" x="612.94" y="486.5283">create</text></g><!--link AdminProfilesAdapter to ProfileHolder--><g id="link_AdminProfilesAdapter_ProfileHolder"><path codeLine="82" d="M1044.6,657.67 C1082.89,657.67 1115.52,657.67 1147.19,657.67 " fill="none" id="AdminProfilesAdapter-to-ProfileHolder" style="stroke:#595959;stroke-width:1.0;stroke-dasharray:7.0,7.0;"/><polygon fill="#595959" points="1153.19,657.67,1144.19,653.67,1148.19,657.67,1144.19,661.67,1153.19,657.67" style="stroke:#595959;stroke-width:1.0;"/><text fill="#000000" font-family="sans-serif" font-size="13" lengthAdjust="spacing" textLength="36" x="1061.9" y="672.6983">create</text></g><!--reverse link ProfileHolder to AdminProfilesAdapter--><g id="link_ProfileHolder_AdminProfilesAdapter"><path codeLine="87" d="M1137.2,629.33 C1105.59,629.33 1083.06,629.33 1044.85,629.33 " fill="none" id="ProfileHolder-backto-AdminProfilesAdapter" style="stroke:#820000;stroke-width:1.0;"/><ellipse cx="1145.2" cy="629.33" fill="#DDDDDD" rx="8" ry="8" style="stroke:#820000;stroke-width:1.0;"/><line style="stroke:#820000;stroke-width:1.0;" x1="1137.2" x2="1153.2" y1="629.33" y2="629.33"/><line style="stroke:#820000;stroke-width:1.0;" x1="1145.2" x2="1145.2" y1="621.33" y2="637.33"/></g><!--link AdminProfilesFragment to AdminProfilesAdapter--><g id="link_AdminProfilesFragment_AdminProfilesAdapter"><path codeLine="83" d="M620.05,621.5 C648.08,621.5 670.83,621.5 698.45,621.5 " fill="none" id="AdminProfilesFragment-to-AdminProfilesAdapter" style="stroke:#595959;stroke-width:1.0;stroke-dasharray:7.0,7.0;"/><polygon fill="#595959" points="704.45,621.5,695.45,617.5,699.45,621.5,695.45,625.5,704.45,621.5" style="stroke:#595959;stroke-width:1.0;"/><text fill="#000000" font-family="sans-serif" font-size="13" lengthAdjust="spacing" textLength="36" x="625.25" y="636.5283">create</text></g><!--link EventHolder to OnItemClickListener--><g id="link_EventHolder_OnItemClickListener"><path codeLine="85" d="M1226,92.06 C1226,116.2 1226,141.62 1226,141.62 C1226,141.62 1306.44,141.62 1376,141.62 " fill="none" id="EventHolder-to-OnItemClickListener" style="stroke:#595959;stroke-width:1.0;stroke-dasharray:7.0,7.0;"/><polygon fill="#595959" points="1382,141.62,1373,137.62,1377,141.62,1373,145.62,1382,141.62" style="stroke:#595959;stroke-width:1.0;"/></g><!--link ViewAllImagesAdapter to ViewAllImagesHolder--><g id="link_ViewAllImagesAdapter_ViewAllImagesHolder"><path codeLine="88" d="M1069.25,462.67 C1089.78,462.67 1103.97,462.67 1122.65,462.67 " fill="none" id="ViewAllImagesAdapter-to-ViewAllImagesHolder" style="stroke:#595959;stroke-width:1.0;stroke-dasharray:7.0,7.0;"/><polygon fill="#595959" points="1128.65,462.67,1119.65,458.67,1123.65,462.67,1119.65,466.67,1128.65,462.67" style="stroke:#595959;stroke-width:1.0;"/><text fill="#000000" font-family="sans-serif" font-size="13" lengthAdjust="spacing" textLength="36" x="1061.95" y="477.6983">create</text></g><!--reverse link ViewAllImagesHolder to ViewAllImagesAdapter--><g id="link_ViewAllImagesHolder_ViewAllImagesAdapter"><path codeLine="89" d="M1112.66,434.33 C1093.99,434.33 1089.82,434.33 1069.3,434.33 " fill="none" id="ViewAllImagesHolder-backto-ViewAllImagesAdapter" style="stroke:#820000;stroke-width:1.0;"/><ellipse cx="1120.66" cy="434.33" fill="#DDDDDD" rx="8" ry="8" style="stroke:#820000;stroke-width:1.0;"/><line style="stroke:#820000;stroke-width:1.0;" x1="1112.66" x2="1128.66" y1="434.33" y2="434.33"/><line style="stroke:#820000;stroke-width:1.0;" x1="1120.66" x2="1120.66" y1="426.33" y2="442.33"/></g><!--SRC=[nLNTRjCm5BxFKnowcy1MgI0XGJLrwYfWbIQ1XiGDFrAMdBRM73jot451Uo8UWRiz6NP-MZivAQasYVIYoVdvpkVFvzXFz0fJ12qt0SU5DY-Ws7Ab8M4AOysa2F8R9h98HIbm9b1lCWIfz4ewZfX7UJxLMh7hjSPvBCL7zXDX50I51wP9oiIRMnHwcaIPHWM_0e3ZjZsSIQ7nXtuw1XCm12wZfF3deJ7TIfOKULASCv5yOlZzGlB4f1KnvVi9CA7zu9d2IACJRb_VARdEwc0dt-G0siyhN2ZCLsEumdWJSrGsotevopKAL6DuB-OQqnbdySrbPRG1p1hbMkYnXG_kMYgyLT4oDVyj6Mf7M0hWamyleurSwxbOS6Cn2tMMSRuM2KUJPMrdLUgMNAcFBueDBB6JGWy7euZoM5_85AUc7MwPthYaNNl5-MZBEIm1ppeHAHbS- -EeSD12vscqn9mYvdl-0xKFIYuOnvmOeORBdw9-4r11R6UWdBqQUF_qURcD-OEiT7PEqxvXgSjJ-z7qEJloBraVi6yrFUV0g4Wvbg9eJUUwqYfqPBaBp0UgHHGZTOR0wIdi0YQJgaBdGDUal7seaZnR3s8bahLFEIzxtcyuoaKTssL0UEX9xC5lkv5eEYAmsNhC-WvjF0ANMdblGOFsvLSymyz7Br_RtqaIvIjClWuduBNLxXd3uFvtN4Xt_sVG0JXuFe1dEz2CHqnOp45zNNqH9eBgDe20k9ewETBbEpas0KUZLoz6eotWDzZBoRju-d1oor6S3W7qxgZ706pSBWy7R1sG562hAWr8pZm9sBo9EW3zusXVCxUMqMF9NGpf4O9ZWsWRpxHUDHfTdTo5G5Bgw5tQV0W9MhnkX9Oi0RsVFVP-MxEXB1r4Kg9h_mK0]--></g></svg>