<?xml version="1.0" encoding="us-ascii" standalone="no"?><svg xmlns="http://www.w3.org/2000/svg" xmlns:xlink="http://www.w3.org/1999/xlink" contentStyleType="text/css" height="744px" preserveAspectRatio="none" style="width:1285px;height:744px;background:#DDDDDD;" version="1.1" viewBox="0 0 1285 744" width="1285px" zoomAndPan="magnify"><defs/><g><rect fill="#DDDDDD" height="744" style="stroke:none;stroke-width:1.0;" width="1285" x="0" y="0"/><!--class BaseImageHandler--><g id="elem_BaseImageHandler"><rect codeLine="7" fill="#F1F1F1" height="159.7266" id="BaseImageHandler" rx="3.5" ry="3.5" style="stroke:#181818;stroke-width:0.5;" width="439" x="499" y="384"/><ellipse cx="654.75" cy="400" fill="#ADD1B2" rx="11" ry="11" style="stroke:#181818;stroke-width:1.0;"/><path d="M657.5156,395.875 Q657.6719,395.6563 657.8594,395.5469 Q658.0469,395.4375 658.2656,395.4375 Q658.6406,395.4375 658.875,395.7031 Q659.1094,395.9531 659.1094,396.5625 L659.1094,398.0156 Q659.1094,398.625 658.875,398.8906 Q658.6406,399.1563 658.2656,399.1563 Q657.9219,399.1563 657.7188,398.9531 Q657.5156,398.7656 657.4063,398.25 Q657.3594,397.8906 657.1719,397.7031 Q656.8438,397.3281 656.2344,397.1094 Q655.625,396.8906 655,396.8906 Q654.2344,396.8906 653.5938,397.2188 Q652.9688,397.5469 652.4688,398.2969 Q651.9844,399.0469 651.9844,400.0781 L651.9844,401.1719 Q651.9844,402.4063 652.875,403.2344 Q653.7656,404.0469 655.3594,404.0469 Q656.2969,404.0469 656.9531,403.7969 Q657.3438,403.6406 657.7656,403.2031 Q658.0313,402.9375 658.1719,402.8594 Q658.3281,402.7813 658.5313,402.7813 Q658.8594,402.7813 659.1094,403.0469 Q659.375,403.2969 659.375,403.6406 Q659.375,403.9844 659.0313,404.3906 Q658.5313,404.9688 657.7344,405.2969 Q656.6563,405.75 655.3594,405.75 Q653.8438,405.75 652.6406,405.125 Q651.6563,404.625 650.9688,403.5625 Q650.2813,402.4844 650.2813,401.2031 L650.2813,400.0469 Q650.2813,398.7188 650.8906,397.5781 Q651.5156,396.4219 652.6094,395.8125 Q653.7031,395.1875 654.9375,395.1875 Q655.6719,395.1875 656.3125,395.3594 Q656.9688,395.5156 657.5156,395.875 Z " fill="#000000"/><text fill="#000000" font-family="sans-serif" font-size="14" lengthAdjust="spacing" textLength="119" x="675.25" y="405.7969">BaseImageHandler</text><line style="stroke:#181818;stroke-width:0.5;" x1="500" x2="937" y1="416" y2="416"/><line style="stroke:#181818;stroke-width:0.5;" x1="500" x2="937" y1="424" y2="424"/><text fill="#000000" font-family="sans-serif" font-size="14" lengthAdjust="spacing" textLength="141" x="505" y="443.1074">+BaseImageHandler():</text><text fill="#000000" font-family="sans-serif" font-size="14" lengthAdjust="spacing" textLength="386" x="505" y="461.7285">#uploadImage(Uri, String, String, String, String, Context): void</text><text fill="#000000" font-family="sans-serif" font-size="14" lengthAdjust="spacing" textLength="188" x="505" y="480.3496">#getFileMimeType(Uri): String</text><text fill="#000000" font-family="sans-serif" font-size="14" lengthAdjust="spacing" textLength="348" x="505" y="498.9707">#getImage(String, String, Context, ImageCallback): void</text><text fill="#000000" font-family="sans-serif" font-size="14" lengthAdjust="spacing" textLength="427" x="505" y="517.5918">#removeImage(String, String, Context, ImageDeletionCallback): void</text><text fill="#000000" font-family="sans-serif" font-size="14" lengthAdjust="spacing" textLength="226" x="505" y="536.2129">+uriToBitmap(Context, Uri): Bitmap?</text></g><!--class DatabaseManager--><g id="elem_DatabaseManager"><rect codeLine="15" fill="#F1F1F1" height="122.4844" id="DatabaseManager" rx="3.5" ry="3.5" style="stroke:#181818;stroke-width:0.5;" width="190" x="1043" y="43"/><ellipse cx="1076.45" cy="59" fill="#ADD1B2" rx="11" ry="11" style="stroke:#181818;stroke-width:1.0;"/><path d="M1079.2156,54.875 Q1079.3719,54.6563 1079.5594,54.5469 Q1079.7469,54.4375 1079.9656,54.4375 Q1080.3406,54.4375 1080.575,54.7031 Q1080.8094,54.9531 1080.8094,55.5625 L1080.8094,57.0156 Q1080.8094,57.625 1080.575,57.8906 Q1080.3406,58.1563 1079.9656,58.1563 Q1079.6219,58.1563 1079.4188,57.9531 Q1079.2156,57.7656 1079.1063,57.25 Q1079.0594,56.8906 1078.8719,56.7031 Q1078.5438,56.3281 1077.9344,56.1094 Q1077.325,55.8906 1076.7,55.8906 Q1075.9344,55.8906 1075.2938,56.2188 Q1074.6688,56.5469 1074.1688,57.2969 Q1073.6844,58.0469 1073.6844,59.0781 L1073.6844,60.1719 Q1073.6844,61.4063 1074.575,62.2344 Q1075.4656,63.0469 1077.0594,63.0469 Q1077.9969,63.0469 1078.6531,62.7969 Q1079.0438,62.6406 1079.4656,62.2031 Q1079.7313,61.9375 1079.8719,61.8594 Q1080.0281,61.7813 1080.2313,61.7813 Q1080.5594,61.7813 1080.8094,62.0469 Q1081.075,62.2969 1081.075,62.6406 Q1081.075,62.9844 1080.7313,63.3906 Q1080.2313,63.9688 1079.4344,64.2969 Q1078.3563,64.75 1077.0594,64.75 Q1075.5438,64.75 1074.3406,64.125 Q1073.3563,63.625 1072.6688,62.5625 Q1071.9813,61.4844 1071.9813,60.2031 L1071.9813,59.0469 Q1071.9813,57.7188 1072.5906,56.5781 Q1073.2156,55.4219 1074.3094,54.8125 Q1075.4031,54.1875 1076.6375,54.1875 Q1077.3719,54.1875 1078.0125,54.3594 Q1078.6688,54.5156 1079.2156,54.875 Z " fill="#000000"/><text fill="#000000" font-family="sans-serif" font-size="14" lengthAdjust="spacing" textLength="117" x="1094.55" y="64.7969">DatabaseManager</text><line style="stroke:#181818;stroke-width:0.5;" x1="1044" x2="1232" y1="75" y2="75"/><text fill="#000000" font-family="sans-serif" font-size="14" lengthAdjust="spacing" textLength="162" x="1049" y="94.1074">storage: FirebaseStorage</text><text fill="#000000" font-family="sans-serif" font-size="14" lengthAdjust="spacing" textLength="137" x="1049" y="112.7285">db: FirebaseFirestore</text><text fill="#000000" font-family="sans-serif" font-size="14" lengthAdjust="spacing" textLength="178" x="1049" y="131.3496">instance: DatabaseManager</text><line style="stroke:#181818;stroke-width:0.5;" x1="1044" x2="1232" y1="138.8633" y2="138.8633"/><text fill="#000000" font-family="sans-serif" font-size="14" lengthAdjust="spacing" textLength="136" x="1049" y="157.9707">-DatabaseManager():</text></g><!--class EventPosterImageHandler--><g id="elem_EventPosterImageHandler"><rect codeLine="21" fill="#F1F1F1" height="122.4844" id="EventPosterImageHandler" rx="3.5" ry="3.5" style="stroke:#181818;stroke-width:0.5;" width="432" x="7" y="344"/><ellipse cx="136.75" cy="360" fill="#ADD1B2" rx="11" ry="11" style="stroke:#181818;stroke-width:1.0;"/><path d="M139.5156,355.875 Q139.6719,355.6563 139.8594,355.5469 Q140.0469,355.4375 140.2656,355.4375 Q140.6406,355.4375 140.875,355.7031 Q141.1094,355.9531 141.1094,356.5625 L141.1094,358.0156 Q141.1094,358.625 140.875,358.8906 Q140.6406,359.1563 140.2656,359.1563 Q139.9219,359.1563 139.7188,358.9531 Q139.5156,358.7656 139.4063,358.25 Q139.3594,357.8906 139.1719,357.7031 Q138.8438,357.3281 138.2344,357.1094 Q137.625,356.8906 137,356.8906 Q136.2344,356.8906 135.5938,357.2188 Q134.9688,357.5469 134.4688,358.2969 Q133.9844,359.0469 133.9844,360.0781 L133.9844,361.1719 Q133.9844,362.4063 134.875,363.2344 Q135.7656,364.0469 137.3594,364.0469 Q138.2969,364.0469 138.9531,363.7969 Q139.3438,363.6406 139.7656,363.2031 Q140.0313,362.9375 140.1719,362.8594 Q140.3281,362.7813 140.5313,362.7813 Q140.8594,362.7813 141.1094,363.0469 Q141.375,363.2969 141.375,363.6406 Q141.375,363.9844 141.0313,364.3906 Q140.5313,364.9688 139.7344,365.2969 Q138.6563,365.75 137.3594,365.75 Q135.8438,365.75 134.6406,365.125 Q133.6563,364.625 132.9688,363.5625 Q132.2813,362.4844 132.2813,361.2031 L132.2813,360.0469 Q132.2813,358.7188 132.8906,357.5781 Q133.5156,356.4219 134.6094,355.8125 Q135.7031,355.1875 136.9375,355.1875 Q137.6719,355.1875 138.3125,355.3594 Q138.9688,355.5156 139.5156,355.875 Z " fill="#000000"/><text fill="#000000" font-family="sans-serif" font-size="14" lengthAdjust="spacing" textLength="164" x="157.25" y="365.7969">EventPosterImageHandler</text><line style="stroke:#181818;stroke-width:0.5;" x1="8" x2="438" y1="376" y2="376"/><line style="stroke:#181818;stroke-width:0.5;" x1="8" x2="438" y1="384" y2="384"/><text fill="#000000" font-family="sans-serif" font-size="14" lengthAdjust="spacing" textLength="186" x="13" y="403.1074">+EventPosterImageHandler():</text><text fill="#000000" font-family="sans-serif" font-size="14" lengthAdjust="spacing" textLength="253" x="13" y="421.7285">+uploadPoster(Uri, Event, Context): void</text><text fill="#000000" font-family="sans-serif" font-size="14" lengthAdjust="spacing" textLength="349" x="13" y="440.3496">+getPosterPicture(Event, Context, ImageCallback): void</text><text fill="#000000" font-family="sans-serif" font-size="14" lengthAdjust="spacing" textLength="420" x="13" y="458.9707">+removeEventPoster(Event, Context, ImageDeletionCallback): void</text></g><!--class ImageCallback--><g id="elem_ImageCallback"><rect codeLine="27" fill="#F1F1F1" height="97.8242" id="ImageCallback" rx="3.5" ry="3.5" style="stroke:#181818;stroke-width:0.5;" width="209" x="1033.5" y="640"/><ellipse cx="1086.75" cy="662.291" fill="#B4A7E5" rx="11" ry="11" style="stroke:#181818;stroke-width:1.0;"/><path d="M1087.7031,658.9316 L1087.7031,665.5879 L1089.4219,665.5879 Q1090.0313,665.5879 1090.2969,665.8223 Q1090.5625,666.0566 1090.5625,666.4473 Q1090.5625,666.8223 1090.2969,667.0566 Q1090.0313,667.291 1089.4219,667.291 L1084.2813,667.291 Q1083.6719,667.291 1083.4063,667.0566 Q1083.1406,666.8223 1083.1406,666.4316 Q1083.1406,666.0566 1083.4063,665.8223 Q1083.6719,665.5879 1084.2813,665.5879 L1086,665.5879 L1086,658.9316 L1084.2813,658.9316 Q1083.6719,658.9316 1083.4063,658.6973 Q1083.1406,658.4629 1083.1406,658.0723 Q1083.1406,657.6973 1083.4063,657.4629 Q1083.6719,657.2285 1084.2813,657.2285 L1089.4219,657.2285 Q1090.0313,657.2285 1090.2969,657.4629 Q1090.5625,657.6973 1090.5625,658.0723 Q1090.5625,658.4629 1090.2969,658.6973 Q1090.0313,658.9316 1089.4219,658.9316 L1087.7031,658.9316 Z " fill="#000000"/><text fill="#000000" font-family="sans-serif" font-size="12" font-style="italic" lengthAdjust="spacing" textLength="61" x="1123.75" y="657.9492">&#171;interface&#187;</text><text fill="#000000" font-family="sans-serif" font-size="14" font-style="italic" lengthAdjust="spacing" textLength="94" x="1107.25" y="676.0684">ImageCallback</text><line style="stroke:#181818;stroke-width:0.5;" x1="1034.5" x2="1241.5" y1="684.582" y2="684.582"/><line style="stroke:#181818;stroke-width:0.5;" x1="1034.5" x2="1241.5" y1="692.582" y2="692.582"/><text fill="#000000" font-family="sans-serif" font-size="14" lengthAdjust="spacing" textLength="197" x="1039.5" y="711.6895">+onImageLoaded(Bitmap): void</text><text fill="#000000" font-family="sans-serif" font-size="14" lengthAdjust="spacing" textLength="161" x="1039.5" y="730.3105">+onError(Exception): void</text></g><!--class ImageDeletionCallback--><g id="elem_ImageDeletionCallback"><rect codeLine="31" fill="#F1F1F1" height="97.8242" id="ImageDeletionCallback" rx="3.5" ry="3.5" style="stroke:#181818;stroke-width:0.5;" width="178" x="1049" y="200"/><ellipse cx="1064" cy="222.291" fill="#B4A7E5" rx="11" ry="11" style="stroke:#181818;stroke-width:1.0;"/><path d="M1064.9531,218.9316 L1064.9531,225.5879 L1066.6719,225.5879 Q1067.2813,225.5879 1067.5469,225.8223 Q1067.8125,226.0566 1067.8125,226.4473 Q1067.8125,226.8223 1067.5469,227.0566 Q1067.2813,227.291 1066.6719,227.291 L1061.5313,227.291 Q1060.9219,227.291 1060.6563,227.0566 Q1060.3906,226.8223 1060.3906,226.4316 Q1060.3906,226.0566 1060.6563,225.8223 Q1060.9219,225.5879 1061.5313,225.5879 L1063.25,225.5879 L1063.25,218.9316 L1061.5313,218.9316 Q1060.9219,218.9316 1060.6563,218.6973 Q1060.3906,218.4629 1060.3906,218.0723 Q1060.3906,217.6973 1060.6563,217.4629 Q1060.9219,217.2285 1061.5313,217.2285 L1066.6719,217.2285 Q1067.2813,217.2285 1067.5469,217.4629 Q1067.8125,217.6973 1067.8125,218.0723 Q1067.8125,218.4629 1067.5469,218.6973 Q1067.2813,218.9316 1066.6719,218.9316 L1064.9531,218.9316 Z " fill="#000000"/><text fill="#000000" font-family="sans-serif" font-size="12" font-style="italic" lengthAdjust="spacing" textLength="61" x="1120.5" y="217.9492">&#171;interface&#187;</text><text fill="#000000" font-family="sans-serif" font-size="14" font-style="italic" lengthAdjust="spacing" textLength="146" x="1078" y="236.0684">ImageDeletionCallback</text><line style="stroke:#181818;stroke-width:0.5;" x1="1050" x2="1226" y1="244.582" y2="244.582"/><line style="stroke:#181818;stroke-width:0.5;" x1="1050" x2="1226" y1="252.582" y2="252.582"/><text fill="#000000" font-family="sans-serif" font-size="14" lengthAdjust="spacing" textLength="155" x="1055" y="271.6895">+onImageDeleted(): void</text><text fill="#000000" font-family="sans-serif" font-size="14" lengthAdjust="spacing" textLength="161" x="1055" y="290.3105">+onError(Exception): void</text></g><!--class ImageDetails--><g id="elem_ImageDetails"><rect codeLine="35" fill="#F1F1F1" height="271.4531" id="ImageDetails" rx="3.5" ry="3.5" style="stroke:#181818;stroke-width:0.5;" width="280" x="998" y="333.5"/><ellipse cx="1093.25" cy="349.5" fill="#ADD1B2" rx="11" ry="11" style="stroke:#181818;stroke-width:1.0;"/><path d="M1096.0156,345.375 Q1096.1719,345.1563 1096.3594,345.0469 Q1096.5469,344.9375 1096.7656,344.9375 Q1097.1406,344.9375 1097.375,345.2031 Q1097.6094,345.4531 1097.6094,346.0625 L1097.6094,347.5156 Q1097.6094,348.125 1097.375,348.3906 Q1097.1406,348.6563 1096.7656,348.6563 Q1096.4219,348.6563 1096.2188,348.4531 Q1096.0156,348.2656 1095.9063,347.75 Q1095.8594,347.3906 1095.6719,347.2031 Q1095.3438,346.8281 1094.7344,346.6094 Q1094.125,346.3906 1093.5,346.3906 Q1092.7344,346.3906 1092.0938,346.7188 Q1091.4688,347.0469 1090.9688,347.7969 Q1090.4844,348.5469 1090.4844,349.5781 L1090.4844,350.6719 Q1090.4844,351.9063 1091.375,352.7344 Q1092.2656,353.5469 1093.8594,353.5469 Q1094.7969,353.5469 1095.4531,353.2969 Q1095.8438,353.1406 1096.2656,352.7031 Q1096.5313,352.4375 1096.6719,352.3594 Q1096.8281,352.2813 1097.0313,352.2813 Q1097.3594,352.2813 1097.6094,352.5469 Q1097.875,352.7969 1097.875,353.1406 Q1097.875,353.4844 1097.5313,353.8906 Q1097.0313,354.4688 1096.2344,354.7969 Q1095.1563,355.25 1093.8594,355.25 Q1092.3438,355.25 1091.1406,354.625 Q1090.1563,354.125 1089.4688,353.0625 Q1088.7813,351.9844 1088.7813,350.7031 L1088.7813,349.5469 Q1088.7813,348.2188 1089.3906,347.0781 Q1090.0156,345.9219 1091.1094,345.3125 Q1092.2031,344.6875 1093.4375,344.6875 Q1094.1719,344.6875 1094.8125,344.8594 Q1095.4688,345.0156 1096.0156,345.375 Z " fill="#000000"/><text fill="#000000" font-family="sans-serif" font-size="14" lengthAdjust="spacing" textLength="81" x="1113.75" y="355.2969">ImageDetails</text><line style="stroke:#181818;stroke-width:0.5;" x1="999" x2="1277" y1="365.5" y2="365.5"/><text fill="#000000" font-family="sans-serif" font-size="14" lengthAdjust="spacing" textLength="112" x="1004" y="384.6074">ImagePath: String</text><text fill="#000000" font-family="sans-serif" font-size="14" lengthAdjust="spacing" textLength="176" x="1004" y="403.2285">metadata: ArrayList&lt;String&gt;</text><text fill="#000000" font-family="sans-serif" font-size="14" lengthAdjust="spacing" textLength="80" x="1004" y="421.8496">imageUri: Uri</text><text fill="#000000" font-family="sans-serif" font-size="14" lengthAdjust="spacing" textLength="140" x="1004" y="440.4707">uploadTime: Calendar</text><text fill="#000000" font-family="sans-serif" font-size="14" lengthAdjust="spacing" textLength="56" x="1004" y="459.0918">id: String</text><text fill="#000000" font-family="sans-serif" font-size="14" lengthAdjust="spacing" textLength="96" x="1004" y="477.7129">objectID: String</text><line style="stroke:#181818;stroke-width:0.5;" x1="999" x2="1277" y1="485.2266" y2="485.2266"/><text fill="#000000" font-family="sans-serif" font-size="14" lengthAdjust="spacing" textLength="165" x="1004" y="504.334">+ImageDetails(Uri, String):</text><text fill="#000000" font-family="sans-serif" font-size="14" lengthAdjust="spacing" textLength="103" x="1004" y="522.9551">+ImageDetails():</text><text fill="#000000" font-family="sans-serif" font-size="14" lengthAdjust="spacing" textLength="227" x="1004" y="541.5762">+ImageDetails(DocumentSnapshot):</text><text fill="#000000" font-family="sans-serif" font-size="14" lengthAdjust="spacing" textLength="268" x="1004" y="560.1973">+fromDocument(DocumentSnapshot): void</text><text fill="#000000" font-family="sans-serif" font-size="14" lengthAdjust="spacing" textLength="231" x="1004" y="578.8184">+toDocument(): Map&lt;String, Object&gt;</text><text fill="#000000" font-family="sans-serif" font-size="14" lengthAdjust="spacing" textLength="172" x="1004" y="597.4395">+addMetadata(String): void</text></g><!--class ImageType--><g id="elem_ImageType"><rect codeLine="49" fill="#F1F1F1" height="116.4453" id="ImageType" rx="3.5" ry="3.5" style="stroke:#181818;stroke-width:0.5;" width="194" x="126" y="7"/><ellipse cx="178.75" cy="29.291" fill="#EB937F" rx="11" ry="11" style="stroke:#181818;stroke-width:1.0;"/><path d="M177.6094,30.0879 L177.6094,32.5879 L181.9375,32.5879 L181.9375,31.666 Q181.9375,31.0566 182.1719,30.791 Q182.4219,30.5254 182.7969,30.5254 Q183.1719,30.5254 183.4063,30.791 Q183.6406,31.0566 183.6406,31.666 L183.6406,34.291 L175.6406,34.291 Q175.0156,34.291 174.75,34.0566 Q174.5,33.8223 174.5,33.4316 Q174.5,33.0566 174.7656,32.8223 Q175.0313,32.5879 175.6406,32.5879 L175.9063,32.5879 L175.9063,25.9316 L175.6406,25.9316 Q175.0156,25.9316 174.75,25.6973 Q174.5,25.4629 174.5,25.0723 Q174.5,24.6973 174.75,24.4629 Q175.0156,24.2285 175.6406,24.2285 L183.2656,24.2285 L183.2656,26.8223 Q183.2656,27.4316 183.0313,27.6973 Q182.8125,27.9473 182.4219,27.9473 Q182.0469,27.9473 181.8125,27.6973 Q181.5781,27.4316 181.5781,26.8223 L181.5781,25.9316 L177.6094,25.9316 L177.6094,28.3848 L179.0938,28.3848 Q179.0938,27.7285 179.2188,27.541 Q179.4844,27.1348 179.9531,27.1348 Q180.3281,27.1348 180.5625,27.4004 Q180.7969,27.6504 180.7969,28.2598 L180.7969,30.2285 Q180.7969,30.7754 180.6719,30.9629 Q180.4063,31.3535 179.9531,31.3535 Q179.4844,31.3535 179.2188,30.9473 Q179.0938,30.7598 179.0938,30.0879 L177.6094,30.0879 Z " fill="#000000"/><text fill="#000000" font-family="sans-serif" font-size="12" font-style="italic" lengthAdjust="spacing" textLength="84" x="197.25" y="24.9492">&#171;enumeration&#187;</text><text fill="#000000" font-family="sans-serif" font-size="14" lengthAdjust="spacing" textLength="70" x="204.25" y="43.0684">ImageType</text><line style="stroke:#181818;stroke-width:0.5;" x1="127" x2="319" y1="51.582" y2="51.582"/><line style="stroke:#181818;stroke-width:0.5;" x1="127" x2="319" y1="59.582" y2="59.582"/><text fill="#000000" font-family="sans-serif" font-size="14" lengthAdjust="spacing" textLength="92" x="132" y="78.6895">+ImageType():</text><text fill="#000000" font-family="sans-serif" font-size="14" lengthAdjust="spacing" textLength="182" x="132" y="97.3105">+valueOf(String): ImageType</text><text fill="#000000" font-family="sans-serif" font-size="14" lengthAdjust="spacing" textLength="145" x="132" y="115.9316">+values(): ImageType[]</text></g><!--class ProfileImageHandler--><g id="elem_ProfileImageHandler"><rect codeLine="54" fill="#F1F1F1" height="122.4844" id="ProfileImageHandler" rx="3.5" ry="3.5" style="stroke:#181818;stroke-width:0.5;" width="418" x="14" y="158"/><ellipse cx="155.25" cy="174" fill="#ADD1B2" rx="11" ry="11" style="stroke:#181818;stroke-width:1.0;"/><path d="M158.0156,169.875 Q158.1719,169.6563 158.3594,169.5469 Q158.5469,169.4375 158.7656,169.4375 Q159.1406,169.4375 159.375,169.7031 Q159.6094,169.9531 159.6094,170.5625 L159.6094,172.0156 Q159.6094,172.625 159.375,172.8906 Q159.1406,173.1563 158.7656,173.1563 Q158.4219,173.1563 158.2188,172.9531 Q158.0156,172.7656 157.9063,172.25 Q157.8594,171.8906 157.6719,171.7031 Q157.3438,171.3281 156.7344,171.1094 Q156.125,170.8906 155.5,170.8906 Q154.7344,170.8906 154.0938,171.2188 Q153.4688,171.5469 152.9688,172.2969 Q152.4844,173.0469 152.4844,174.0781 L152.4844,175.1719 Q152.4844,176.4063 153.375,177.2344 Q154.2656,178.0469 155.8594,178.0469 Q156.7969,178.0469 157.4531,177.7969 Q157.8438,177.6406 158.2656,177.2031 Q158.5313,176.9375 158.6719,176.8594 Q158.8281,176.7813 159.0313,176.7813 Q159.3594,176.7813 159.6094,177.0469 Q159.875,177.2969 159.875,177.6406 Q159.875,177.9844 159.5313,178.3906 Q159.0313,178.9688 158.2344,179.2969 Q157.1563,179.75 155.8594,179.75 Q154.3438,179.75 153.1406,179.125 Q152.1563,178.625 151.4688,177.5625 Q150.7813,176.4844 150.7813,175.2031 L150.7813,174.0469 Q150.7813,172.7188 151.3906,171.5781 Q152.0156,170.4219 153.1094,169.8125 Q154.2031,169.1875 155.4375,169.1875 Q156.1719,169.1875 156.8125,169.3594 Q157.4688,169.5156 158.0156,169.875 Z " fill="#000000"/><text fill="#000000" font-family="sans-serif" font-size="14" lengthAdjust="spacing" textLength="127" x="175.75" y="179.7969">ProfileImageHandler</text><line style="stroke:#181818;stroke-width:0.5;" x1="15" x2="431" y1="190" y2="190"/><line style="stroke:#181818;stroke-width:0.5;" x1="15" x2="431" y1="198" y2="198"/><text fill="#000000" font-family="sans-serif" font-size="14" lengthAdjust="spacing" textLength="149" x="20" y="217.1074">+ProfileImageHandler():</text><text fill="#000000" font-family="sans-serif" font-size="14" lengthAdjust="spacing" textLength="300" x="20" y="235.7285">+uploadProfilePicture(Uri, Profile, Context): void</text><text fill="#000000" font-family="sans-serif" font-size="14" lengthAdjust="spacing" textLength="352" x="20" y="254.3496">+getProfilePicture(Profile, Context, ImageCallback): void</text><text fill="#000000" font-family="sans-serif" font-size="14" lengthAdjust="spacing" textLength="406" x="20" y="272.9707">+removeProfilePic(Profile, Context, ImageDeletionCallback): void</text></g><!--link BaseImageHandler to DatabaseManager--><g id="link_BaseImageHandler_DatabaseManager"><path codeLine="61" d="M675,383.8 C675,294.71 675,163.25 675,163.25 C675,163.25 901.41,163.25 1036.91,163.25 " fill="none" id="BaseImageHandler-to-DatabaseManager" style="stroke:#595959;stroke-width:1.0;stroke-dasharray:7.0,7.0;"/><polygon fill="#595959" points="1042.91,163.25,1033.91,159.25,1037.91,163.25,1033.91,167.25,1042.91,163.25" style="stroke:#595959;stroke-width:1.0;"/></g><!--link BaseImageHandler to ImageCallback--><g id="link_BaseImageHandler_ImageCallback"><path codeLine="62" d="M646,544.13 C646,605.32 646,679.2 646,679.2 C646,679.2 882.9,679.2 1027.36,679.2 " fill="none" id="BaseImageHandler-to-ImageCallback" style="stroke:#595959;stroke-width:1.0;stroke-dasharray:7.0,7.0;"/><polygon fill="#595959" points="1033.36,679.2,1024.36,675.2,1028.36,679.2,1024.36,683.2,1033.36,679.2" style="stroke:#595959;stroke-width:1.0;"/></g><!--reverse link ImageCallback to BaseImageHandler--><g id="link_ImageCallback_BaseImageHandler"><path codeLine="69" d="M1017.25,659.6 C915.41,659.6 792,659.6 792,659.6 C792,659.6 792,598.14 792,544.12 " fill="none" id="ImageCallback-backto-BaseImageHandler" style="stroke:#820000;stroke-width:1.0;"/><ellipse cx="1025.25" cy="659.6" fill="#DDDDDD" rx="8" ry="8" style="stroke:#820000;stroke-width:1.0;"/><line style="stroke:#820000;stroke-width:1.0;" x1="1017.25" x2="1033.25" y1="659.6" y2="659.6"/><line style="stroke:#820000;stroke-width:1.0;" x1="1025.25" x2="1025.25" y1="651.6" y2="667.6"/></g><!--link BaseImageHandler to ImageDeletionCallback--><g id="link_BaseImageHandler_ImageDeletionCallback"><path codeLine="63" d="M763,383.93 C763,337.85 763,289 763,289 C763,289 931.74,289 1042.65,289 " fill="none" id="BaseImageHandler-to-ImageDeletionCallback" style="stroke:#595959;stroke-width:1.0;stroke-dasharray:7.0,7.0;"/><polygon fill="#595959" points="1048.65,289,1039.65,285,1043.65,289,1039.65,293,1048.65,289" style="stroke:#595959;stroke-width:1.0;"/></g><!--reverse link ImageDeletionCallback to BaseImageHandler--><g id="link_ImageDeletionCallback_BaseImageHandler"><path codeLine="70" d="M1032.76,293.5 C948.52,293.5 851,293.5 851,293.5 C851,293.5 851,339.52 851,383.74 " fill="none" id="ImageDeletionCallback-backto-BaseImageHandler" style="stroke:#820000;stroke-width:1.0;"/><ellipse cx="1040.76" cy="293.5" fill="#DDDDDD" rx="8" ry="8" style="stroke:#820000;stroke-width:1.0;"/><line style="stroke:#820000;stroke-width:1.0;" x1="1032.76" x2="1048.76" y1="293.5" y2="293.5"/><line style="stroke:#820000;stroke-width:1.0;" x1="1040.76" x2="1040.76" y1="285.5" y2="301.5"/></g><!--link BaseImageHandler to ImageDetails--><g id="link_BaseImageHandler_ImageDetails"><path codeLine="64" d="M938.08,464 C958.4,464 972.59,464 991.9,464 " fill="none" id="BaseImageHandler-to-ImageDetails" style="stroke:#595959;stroke-width:1.0;stroke-dasharray:7.0,7.0;"/><polygon fill="#595959" points="997.9,464,988.9,460,992.9,464,988.9,468,997.9,464" style="stroke:#595959;stroke-width:1.0;"/><text fill="#000000" font-family="sans-serif" font-size="13" lengthAdjust="spacing" textLength="36" x="930.99" y="479.0283">create</text></g><!--link EventPosterImageHandler to BaseImageHandler--><g id="link_EventPosterImageHandler_BaseImageHandler"><path codeLine="65" d="M439.25,425 C459.06,425 461.14,425 480.97,425 " fill="none" id="EventPosterImageHandler-to-BaseImageHandler" style="stroke:#000082;stroke-width:1.0;"/><polygon fill="none" points="498.97,425,480.97,419,480.97,431,498.97,425" style="stroke:#000082;stroke-width:1.0;"/></g><!--link EventPosterImageHandler to DatabaseManager--><g id="link_EventPosterImageHandler_DatabaseManager"><path codeLine="66" d="M435,343.87 C435,271.74 435,161.5 435,161.5 C435,161.5 844.77,161.5 1036.82,161.5 " fill="none" id="EventPosterImageHandler-to-DatabaseManager" style="stroke:#595959;stroke-width:1.0;stroke-dasharray:7.0,7.0;"/><polygon fill="#595959" points="1042.82,161.5,1033.82,157.5,1037.82,161.5,1033.82,165.5,1042.82,161.5" style="stroke:#595959;stroke-width:1.0;"/></g><!--link EventPosterImageHandler to ImageCallback--><g id="link_EventPosterImageHandler_ImageCallback"><path codeLine="67" d="M223,466.17 C223,557.38 223,718.4 223,718.4 C223,718.4 787.4,718.4 1027.48,718.4 " fill="none" id="EventPosterImageHandler-to-ImageCallback" style="stroke:#595959;stroke-width:1.0;stroke-dasharray:7.0,7.0;"/><polygon fill="#595959" points="1033.48,718.4,1024.48,714.4,1028.48,718.4,1024.48,722.4,1033.48,718.4" style="stroke:#595959;stroke-width:1.0;"/></g><!--link EventPosterImageHandler to ImageDeletionCallback--><g id="link_EventPosterImageHandler_ImageDeletionCallback"><path codeLine="68" d="M437,343.69 C437,313.92 437,284.5 437,284.5 C437,284.5 854.06,284.5 1042.86,284.5 " fill="none" id="EventPosterImageHandler-to-ImageDeletionCallback" style="stroke:#595959;stroke-width:1.0;stroke-dasharray:7.0,7.0;"/><polygon fill="#595959" points="1048.86,284.5,1039.86,280.5,1043.86,284.5,1039.86,288.5,1048.86,284.5" style="stroke:#595959;stroke-width:1.0;"/></g><!--link ProfileImageHandler to BaseImageHandler--><g id="link_ProfileImageHandler_BaseImageHandler"><path codeLine="71" d="M432.1,240 C513.23,240 587,240 587,240 C587,240 587,301.49 587,365.76 " fill="none" id="ProfileImageHandler-to-BaseImageHandler" style="stroke:#000082;stroke-width:1.0;"/><polygon fill="none" points="587,383.76,593,365.76,581,365.76,587,383.76" style="stroke:#000082;stroke-width:1.0;"/></g><!--link ProfileImageHandler to DatabaseManager--><g id="link_ProfileImageHandler_DatabaseManager"><path codeLine="72" d="M432.06,159.75 C623.93,159.75 893.49,159.75 1036.98,159.75 " fill="none" id="ProfileImageHandler-to-DatabaseManager" style="stroke:#595959;stroke-width:1.0;stroke-dasharray:7.0,7.0;"/><polygon fill="#595959" points="1042.98,159.75,1033.98,155.75,1037.98,159.75,1033.98,163.75,1042.98,159.75" style="stroke:#595959;stroke-width:1.0;"/></g><!--link ProfileImageHandler to ImageCallback--><g id="link_ProfileImageHandler_ImageCallback"><path codeLine="73" d="M432.17,260 C454.34,260 469,260 469,260 C469,260 469,698.8 469,698.8 C469,698.8 839.31,698.8 1027.47,698.8 " fill="none" id="ProfileImageHandler-to-ImageCallback" style="stroke:#595959;stroke-width:1.0;stroke-dasharray:7.0,7.0;"/><polygon fill="#595959" points="1033.47,698.8,1024.47,694.8,1028.47,698.8,1024.47,702.8,1033.47,698.8" style="stroke:#595959;stroke-width:1.0;"/></g><!--link ProfileImageHandler to ImageDeletionCallback--><g id="link_ProfileImageHandler_ImageDeletionCallback"><path codeLine="74" d="M432.06,220 C626.57,220 901.08,220 1042.82,220 " fill="none" id="ProfileImageHandler-to-ImageDeletionCallback" style="stroke:#595959;stroke-width:1.0;stroke-dasharray:7.0,7.0;"/><polygon fill="#595959" points="1048.82,220,1039.82,216,1043.82,220,1039.82,224,1048.82,220" style="stroke:#595959;stroke-width:1.0;"/></g><!--SRC=[dLNRJjj047ttLspX9IY9X90gKGkb0W8g4X6HaZuXAasyasIBlMkjrn6queluXBxnPTsBxx49PFEGPEQSsPavdl4NjSO8YHBFNeXBfNyGoLPhHIYJ62Wck9SyCXw3X8Y4ZADwZf48gTQYuWX2I99pfIHRf0fl0i5dx0-IOy-p7d812Tv4iC8Vm6c8alpr2EblcNj7lhOVaZGE1L3hwVsKR41cEZ9VTNzV2gxmIHtvP2COjJ5MgAvPY1CMuLodRE9ejoFa07T3Hx01iUvB2CC518_Ls18ZiS6FiCSOecdYTfG-IIMRYmkc8eXx1SkbwQpVlPUiVsDGiD3DcW3NGLtxXashwnv9b93whq-kjOB6FNC6uwEBqco-3TOw64yKy42p6a6B5AusoDLK90fbYv8TNfTIFnFK-PsYbj0YND_eue1J5gXKOgyExPIbdybIIQMTsgN9YySqJ2uXmFeTvEoCbAxHAAjPS8kwrPKXxJd9gka8VYMbq4ay1HYR2pilQcRq_eKMhM_yu5rEleofW8L95gvggevPfbdDtMORYo2DT7zd7E9aBLI6MKeHvQuMJ9cp4WLCcoSGd-KpTBVuhNVFoAA0qec-aEh7ifVdbyTm-Kn1hIkJJQ8CxfDpAU7vbYKgYpooZxhXw79zCsl6u1xEkLuKFj4A8ASWBP1MemgRqysuiBruoDF8fM0sZ17DM5224Q2KhK3aNTn0cEBTiYodG9Hkq_BIVlzG23cLOgdtMiiCjdWQy-S0-LnPoJDRvoJMAKtqpc4i-LtSxcdqjjuQ-HdU7txzPZu32iaQwSDmHBOMr-VOjJhsuJRhs2-6cy_AySd1ssiW4HI-_JlmkhQm2Ngip-d980w1yOVXBxBrUdsNlRkXdsFN6xe7TwkXzPrSENqTvFJ4b9yNtr9x-wBzABjjwd8nT_VzFVRkld-ENU_x7jncZ_u3]--></g></svg>