<?xml version="1.0" encoding="us-ascii" standalone="no"?><svg xmlns="http://www.w3.org/2000/svg" xmlns:xlink="http://www.w3.org/1999/xlink" contentStyleType="text/css" height="1466px" preserveAspectRatio="none" style="width:2311px;height:1466px;background:#DDDDDD;" version="1.1" viewBox="0 0 2311 1466" width="2311px" zoomAndPan="magnify"><defs/><g><rect fill="#DDDDDD" height="1466" style="stroke:none;stroke-width:1.0;" width="2311" x="0" y="0"/><!--class AttendanceCardViewHolder--><g id="elem_AttendanceCardViewHolder"><rect codeLine="7" fill="#F1F1F1" height="85.2422" id="AttendanceCardViewHolder" rx="3.5" ry="3.5" style="stroke:#181818;stroke-width:0.5;" width="236" x="1087" y="531"/><ellipse cx="1115.95" cy="547" fill="#ADD1B2" rx="11" ry="11" style="stroke:#181818;stroke-width:1.0;"/><path d="M1118.7156,542.875 Q1118.8719,542.6563 1119.0594,542.5469 Q1119.2469,542.4375 1119.4656,542.4375 Q1119.8406,542.4375 1120.075,542.7031 Q1120.3094,542.9531 1120.3094,543.5625 L1120.3094,545.0156 Q1120.3094,545.625 1120.075,545.8906 Q1119.8406,546.1563 1119.4656,546.1563 Q1119.1219,546.1563 1118.9188,545.9531 Q1118.7156,545.7656 1118.6063,545.25 Q1118.5594,544.8906 1118.3719,544.7031 Q1118.0438,544.3281 1117.4344,544.1094 Q1116.825,543.8906 1116.2,543.8906 Q1115.4344,543.8906 1114.7938,544.2188 Q1114.1688,544.5469 1113.6688,545.2969 Q1113.1844,546.0469 1113.1844,547.0781 L1113.1844,548.1719 Q1113.1844,549.4063 1114.075,550.2344 Q1114.9656,551.0469 1116.5594,551.0469 Q1117.4969,551.0469 1118.1531,550.7969 Q1118.5438,550.6406 1118.9656,550.2031 Q1119.2313,549.9375 1119.3719,549.8594 Q1119.5281,549.7813 1119.7313,549.7813 Q1120.0594,549.7813 1120.3094,550.0469 Q1120.575,550.2969 1120.575,550.6406 Q1120.575,550.9844 1120.2313,551.3906 Q1119.7313,551.9688 1118.9344,552.2969 Q1117.8563,552.75 1116.5594,552.75 Q1115.0438,552.75 1113.8406,552.125 Q1112.8563,551.625 1112.1688,550.5625 Q1111.4813,549.4844 1111.4813,548.2031 L1111.4813,547.0469 Q1111.4813,545.7188 1112.0906,544.5781 Q1112.7156,543.4219 1113.8094,542.8125 Q1114.9031,542.1875 1116.1375,542.1875 Q1116.8719,542.1875 1117.5125,542.3594 Q1118.1688,542.5156 1118.7156,542.875 Z " fill="#000000"/><text fill="#000000" font-family="sans-serif" font-size="14" lengthAdjust="spacing" textLength="173" x="1133.05" y="552.7969">AttendanceCardViewHolder</text><line style="stroke:#181818;stroke-width:0.5;" x1="1088" x2="1322" y1="563" y2="563"/><line style="stroke:#181818;stroke-width:0.5;" x1="1088" x2="1322" y1="571" y2="571"/><text fill="#000000" font-family="sans-serif" font-size="14" lengthAdjust="spacing" textLength="224" x="1093" y="590.1074">+AttendanceCardViewHolder(View):</text><text fill="#000000" font-family="sans-serif" font-size="14" lengthAdjust="spacing" textLength="123" x="1093" y="608.7285">+bindView(int): void</text></g><!--class AttendanceViewAdapter--><g id="elem_AttendanceViewAdapter"><rect codeLine="11" fill="#F1F1F1" height="122.4844" id="AttendanceViewAdapter" rx="3.5" ry="3.5" style="stroke:#181818;stroke-width:0.5;" width="432" x="1464" y="595.5"/><ellipse cx="1600.25" cy="611.5" fill="#ADD1B2" rx="11" ry="11" style="stroke:#181818;stroke-width:1.0;"/><path d="M1603.0156,607.375 Q1603.1719,607.1563 1603.3594,607.0469 Q1603.5469,606.9375 1603.7656,606.9375 Q1604.1406,606.9375 1604.375,607.2031 Q1604.6094,607.4531 1604.6094,608.0625 L1604.6094,609.5156 Q1604.6094,610.125 1604.375,610.3906 Q1604.1406,610.6563 1603.7656,610.6563 Q1603.4219,610.6563 1603.2188,610.4531 Q1603.0156,610.2656 1602.9063,609.75 Q1602.8594,609.3906 1602.6719,609.2031 Q1602.3438,608.8281 1601.7344,608.6094 Q1601.125,608.3906 1600.5,608.3906 Q1599.7344,608.3906 1599.0938,608.7188 Q1598.4688,609.0469 1597.9688,609.7969 Q1597.4844,610.5469 1597.4844,611.5781 L1597.4844,612.6719 Q1597.4844,613.9063 1598.375,614.7344 Q1599.2656,615.5469 1600.8594,615.5469 Q1601.7969,615.5469 1602.4531,615.2969 Q1602.8438,615.1406 1603.2656,614.7031 Q1603.5313,614.4375 1603.6719,614.3594 Q1603.8281,614.2813 1604.0313,614.2813 Q1604.3594,614.2813 1604.6094,614.5469 Q1604.875,614.7969 1604.875,615.1406 Q1604.875,615.4844 1604.5313,615.8906 Q1604.0313,616.4688 1603.2344,616.7969 Q1602.1563,617.25 1600.8594,617.25 Q1599.3438,617.25 1598.1406,616.625 Q1597.1563,616.125 1596.4688,615.0625 Q1595.7813,613.9844 1595.7813,612.7031 L1595.7813,611.5469 Q1595.7813,610.2188 1596.3906,609.0781 Q1597.0156,607.9219 1598.1094,607.3125 Q1599.2031,606.6875 1600.4375,606.6875 Q1601.1719,606.6875 1601.8125,606.8594 Q1602.4688,607.0156 1603.0156,607.375 Z " fill="#000000"/><text fill="#000000" font-family="sans-serif" font-size="14" lengthAdjust="spacing" textLength="151" x="1620.75" y="617.2969">AttendanceViewAdapter</text><line style="stroke:#181818;stroke-width:0.5;" x1="1465" x2="1895" y1="627.5" y2="627.5"/><text fill="#000000" font-family="sans-serif" font-size="14" lengthAdjust="spacing" textLength="87" x="1470" y="646.6074">itemCount: int</text><line style="stroke:#181818;stroke-width:0.5;" x1="1465" x2="1895" y1="654.1211" y2="654.1211"/><text fill="#000000" font-family="sans-serif" font-size="14" lengthAdjust="spacing" textLength="394" x="1470" y="673.2285">+AttendanceViewAdapter(Context, HashMap&lt;String, Double&gt;):</text><text fill="#000000" font-family="sans-serif" font-size="14" lengthAdjust="spacing" textLength="420" x="1470" y="691.8496">+onCreateViewHolder(ViewGroup, int): AttendanceCardViewHolder</text><text fill="#000000" font-family="sans-serif" font-size="14" lengthAdjust="spacing" textLength="362" x="1470" y="710.4707">+onBindViewHolder(AttendanceCardViewHolder, int): void</text></g><!--class CreateNotificationDialog--><g id="elem_CreateNotificationDialog"><rect codeLine="17" fill="#F1F1F1" height="103.8633" id="CreateNotificationDialog" rx="3.5" ry="3.5" style="stroke:#181818;stroke-width:0.5;" width="221" x="1569.5" y="1203.5"/><ellipse cx="1601.15" cy="1219.5" fill="#ADD1B2" rx="11" ry="11" style="stroke:#181818;stroke-width:1.0;"/><path d="M1603.9156,1215.375 Q1604.0719,1215.1563 1604.2594,1215.0469 Q1604.4469,1214.9375 1604.6656,1214.9375 Q1605.0406,1214.9375 1605.275,1215.2031 Q1605.5094,1215.4531 1605.5094,1216.0625 L1605.5094,1217.5156 Q1605.5094,1218.125 1605.275,1218.3906 Q1605.0406,1218.6563 1604.6656,1218.6563 Q1604.3219,1218.6563 1604.1188,1218.4531 Q1603.9156,1218.2656 1603.8063,1217.75 Q1603.7594,1217.3906 1603.5719,1217.2031 Q1603.2438,1216.8281 1602.6344,1216.6094 Q1602.025,1216.3906 1601.4,1216.3906 Q1600.6344,1216.3906 1599.9938,1216.7188 Q1599.3688,1217.0469 1598.8688,1217.7969 Q1598.3844,1218.5469 1598.3844,1219.5781 L1598.3844,1220.6719 Q1598.3844,1221.9063 1599.275,1222.7344 Q1600.1656,1223.5469 1601.7594,1223.5469 Q1602.6969,1223.5469 1603.3531,1223.2969 Q1603.7438,1223.1406 1604.1656,1222.7031 Q1604.4313,1222.4375 1604.5719,1222.3594 Q1604.7281,1222.2813 1604.9313,1222.2813 Q1605.2594,1222.2813 1605.5094,1222.5469 Q1605.775,1222.7969 1605.775,1223.1406 Q1605.775,1223.4844 1605.4313,1223.8906 Q1604.9313,1224.4688 1604.1344,1224.7969 Q1603.0563,1225.25 1601.7594,1225.25 Q1600.2438,1225.25 1599.0406,1224.625 Q1598.0563,1224.125 1597.3688,1223.0625 Q1596.6813,1221.9844 1596.6813,1220.7031 L1596.6813,1219.5469 Q1596.6813,1218.2188 1597.2906,1217.0781 Q1597.9156,1215.9219 1599.0094,1215.3125 Q1600.1031,1214.6875 1601.3375,1214.6875 Q1602.0719,1214.6875 1602.7125,1214.8594 Q1603.3688,1215.0156 1603.9156,1215.375 Z " fill="#000000"/><text fill="#000000" font-family="sans-serif" font-size="14" lengthAdjust="spacing" textLength="152" x="1618.85" y="1225.2969">CreateNotificationDialog</text><line style="stroke:#181818;stroke-width:0.5;" x1="1570.5" x2="1789.5" y1="1235.5" y2="1235.5"/><line style="stroke:#181818;stroke-width:0.5;" x1="1570.5" x2="1789.5" y1="1243.5" y2="1243.5"/><text fill="#000000" font-family="sans-serif" font-size="14" lengthAdjust="spacing" textLength="174" x="1575.5" y="1262.6074">+CreateNotificationDialog():</text><text fill="#000000" font-family="sans-serif" font-size="14" lengthAdjust="spacing" textLength="209" x="1575.5" y="1281.2285">+onCreateDialog(Bundle): Dialog</text><text fill="#000000" font-family="sans-serif" font-size="14" lengthAdjust="spacing" textLength="156" x="1575.5" y="1299.8496">+onAttach(Context): void</text></g><!--class EnterEventDetailsActivity--><g id="elem_EnterEventDetailsActivity"><rect codeLine="22" fill="#F1F1F1" height="383.1797" id="EnterEventDetailsActivity" rx="3.5" ry="3.5" style="stroke:#181818;stroke-width:0.5;" width="321" x="1044.5" y="7"/><ellipse cx="1122.25" cy="23" fill="#ADD1B2" rx="11" ry="11" style="stroke:#181818;stroke-width:1.0;"/><path d="M1125.0156,18.875 Q1125.1719,18.6563 1125.3594,18.5469 Q1125.5469,18.4375 1125.7656,18.4375 Q1126.1406,18.4375 1126.375,18.7031 Q1126.6094,18.9531 1126.6094,19.5625 L1126.6094,21.0156 Q1126.6094,21.625 1126.375,21.8906 Q1126.1406,22.1563 1125.7656,22.1563 Q1125.4219,22.1563 1125.2188,21.9531 Q1125.0156,21.7656 1124.9063,21.25 Q1124.8594,20.8906 1124.6719,20.7031 Q1124.3438,20.3281 1123.7344,20.1094 Q1123.125,19.8906 1122.5,19.8906 Q1121.7344,19.8906 1121.0938,20.2188 Q1120.4688,20.5469 1119.9688,21.2969 Q1119.4844,22.0469 1119.4844,23.0781 L1119.4844,24.1719 Q1119.4844,25.4063 1120.375,26.2344 Q1121.2656,27.0469 1122.8594,27.0469 Q1123.7969,27.0469 1124.4531,26.7969 Q1124.8438,26.6406 1125.2656,26.2031 Q1125.5313,25.9375 1125.6719,25.8594 Q1125.8281,25.7813 1126.0313,25.7813 Q1126.3594,25.7813 1126.6094,26.0469 Q1126.875,26.2969 1126.875,26.6406 Q1126.875,26.9844 1126.5313,27.3906 Q1126.0313,27.9688 1125.2344,28.2969 Q1124.1563,28.75 1122.8594,28.75 Q1121.3438,28.75 1120.1406,28.125 Q1119.1563,27.625 1118.4688,26.5625 Q1117.7813,25.4844 1117.7813,24.2031 L1117.7813,23.0469 Q1117.7813,21.7188 1118.3906,20.5781 Q1119.0156,19.4219 1120.1094,18.8125 Q1121.2031,18.1875 1122.4375,18.1875 Q1123.1719,18.1875 1123.8125,18.3594 Q1124.4688,18.5156 1125.0156,18.875 Z " fill="#000000"/><text fill="#000000" font-family="sans-serif" font-size="14" lengthAdjust="spacing" textLength="157" x="1142.75" y="28.7969">EnterEventDetailsActivity</text><line style="stroke:#181818;stroke-width:0.5;" x1="1045.5" x2="1364.5" y1="39" y2="39"/><line style="stroke:#181818;stroke-width:0.5;" x1="1045.5" x2="1364.5" y1="47" y2="47"/><text fill="#000000" font-family="sans-serif" font-size="14" lengthAdjust="spacing" textLength="179" x="1050.5" y="66.1074">+EnterEventDetailsActivity():</text><text fill="#000000" font-family="sans-serif" font-size="14" lengthAdjust="spacing" textLength="182" x="1050.5" y="84.7285">-setupNextButtonClick(): void</text><text fill="#000000" font-family="sans-serif" font-size="14" lengthAdjust="spacing" textLength="198" x="1050.5" y="103.3496">-openPosterSelectSheet(): void</text><text fill="#000000" font-family="sans-serif" font-size="14" lengthAdjust="spacing" textLength="267" x="1050.5" y="121.9707">-validateImageHasBeenChosen(): boolean</text><text fill="#000000" font-family="sans-serif" font-size="14" lengthAdjust="spacing" textLength="233" x="1050.5" y="140.5918">+onActivityResult(int, int, Intent): void</text><text fill="#000000" font-family="sans-serif" font-size="14" lengthAdjust="spacing" textLength="218" x="1050.5" y="159.2129">-checkAndSetDateAndTime(): void</text><text fill="#000000" font-family="sans-serif" font-size="14" lengthAdjust="spacing" textLength="118" x="1050.5" y="177.834">-backAction(): void</text><text fill="#000000" font-family="sans-serif" font-size="14" lengthAdjust="spacing" textLength="161" x="1050.5" y="196.4551">-loadCachedEvent(): void</text><text fill="#000000" font-family="sans-serif" font-size="14" lengthAdjust="spacing" textLength="207" x="1050.5" y="215.0762">-hasValidEventDetails(): boolean</text><text fill="#000000" font-family="sans-serif" font-size="14" lengthAdjust="spacing" textLength="290" x="1050.5" y="233.6973">-validateEventNameLength(EditText): boolean</text><text fill="#000000" font-family="sans-serif" font-size="14" lengthAdjust="spacing" textLength="285" x="1050.5" y="252.3184">-validateEditTextNotEmpty(EditText): boolean</text><text fill="#000000" font-family="sans-serif" font-size="14" lengthAdjust="spacing" textLength="190" x="1050.5" y="270.9395">-openDatePickerDialog(): void</text><text fill="#000000" font-family="sans-serif" font-size="14" lengthAdjust="spacing" textLength="182" x="1050.5" y="289.5605">-handleEventCreation(): void</text><text fill="#000000" font-family="sans-serif" font-size="14" lengthAdjust="spacing" textLength="191" x="1050.5" y="308.1816">-openTimePickerDialog(): void</text><text fill="#000000" font-family="sans-serif" font-size="14" lengthAdjust="spacing" textLength="177" x="1050.5" y="326.8027">-initializeEventDetails(): void</text><text fill="#000000" font-family="sans-serif" font-size="14" lengthAdjust="spacing" textLength="247" x="1050.5" y="345.4238">-AddHostedEventToProfile(Event): void</text><text fill="#000000" font-family="sans-serif" font-size="14" lengthAdjust="spacing" textLength="163" x="1050.5" y="364.0449">#onCreate(Bundle?): void</text><text fill="#000000" font-family="sans-serif" font-size="14" lengthAdjust="spacing" textLength="309" x="1050.5" y="382.666">-validateCapacityNonNegative(EditText): boolean</text></g><!--class EventMenuActivity--><g id="elem_EventMenuActivity"><rect codeLine="42" fill="#F1F1F1" height="159.7266" id="EventMenuActivity" rx="3.5" ry="3.5" style="stroke:#181818;stroke-width:0.5;" width="206" x="740" y="613.5"/><ellipse cx="781.55" cy="629.5" fill="#ADD1B2" rx="11" ry="11" style="stroke:#181818;stroke-width:1.0;"/><path d="M784.3156,625.375 Q784.4719,625.1563 784.6594,625.0469 Q784.8469,624.9375 785.0656,624.9375 Q785.4406,624.9375 785.675,625.2031 Q785.9094,625.4531 785.9094,626.0625 L785.9094,627.5156 Q785.9094,628.125 785.675,628.3906 Q785.4406,628.6563 785.0656,628.6563 Q784.7219,628.6563 784.5188,628.4531 Q784.3156,628.2656 784.2063,627.75 Q784.1594,627.3906 783.9719,627.2031 Q783.6438,626.8281 783.0344,626.6094 Q782.425,626.3906 781.8,626.3906 Q781.0344,626.3906 780.3938,626.7188 Q779.7688,627.0469 779.2688,627.7969 Q778.7844,628.5469 778.7844,629.5781 L778.7844,630.6719 Q778.7844,631.9063 779.675,632.7344 Q780.5656,633.5469 782.1594,633.5469 Q783.0969,633.5469 783.7531,633.2969 Q784.1438,633.1406 784.5656,632.7031 Q784.8313,632.4375 784.9719,632.3594 Q785.1281,632.2813 785.3313,632.2813 Q785.6594,632.2813 785.9094,632.5469 Q786.175,632.7969 786.175,633.1406 Q786.175,633.4844 785.8313,633.8906 Q785.3313,634.4688 784.5344,634.7969 Q783.4563,635.25 782.1594,635.25 Q780.6438,635.25 779.4406,634.625 Q778.4563,634.125 777.7688,633.0625 Q777.0813,631.9844 777.0813,630.7031 L777.0813,629.5469 Q777.0813,628.2188 777.6906,627.0781 Q778.3156,625.9219 779.4094,625.3125 Q780.5031,624.6875 781.7375,624.6875 Q782.4719,624.6875 783.1125,624.8594 Q783.7688,625.0156 784.3156,625.375 Z " fill="#000000"/><text fill="#000000" font-family="sans-serif" font-size="14" lengthAdjust="spacing" textLength="115" x="801.45" y="635.2969">EventMenuActivity</text><line style="stroke:#181818;stroke-width:0.5;" x1="741" x2="945" y1="645.5" y2="645.5"/><text fill="#000000" font-family="sans-serif" font-size="14" lengthAdjust="spacing" textLength="101" x="746" y="664.6074">upPoster: Event</text><line style="stroke:#181818;stroke-width:0.5;" x1="741" x2="945" y1="672.1211" y2="672.1211"/><text fill="#000000" font-family="sans-serif" font-size="14" lengthAdjust="spacing" textLength="137" x="746" y="691.2285">+EventMenuActivity():</text><text fill="#000000" font-family="sans-serif" font-size="14" lengthAdjust="spacing" textLength="163" x="746" y="709.8496">#onCreate(Bundle?): void</text><text fill="#000000" font-family="sans-serif" font-size="14" lengthAdjust="spacing" textLength="194" x="746" y="728.4707">-animateProgress(int, int): void</text><text fill="#000000" font-family="sans-serif" font-size="14" lengthAdjust="spacing" textLength="112" x="746" y="747.0918">-setUpText(): void</text><text fill="#000000" font-family="sans-serif" font-size="14" lengthAdjust="spacing" textLength="133" x="746" y="765.7129">-setUpButtons(): void</text></g><!--class EventNotificationPageActivity--><g id="elem_EventNotificationPageActivity"><rect codeLine="50" fill="#F1F1F1" height="122.4844" id="EventNotificationPageActivity" rx="3.5" ry="3.5" style="stroke:#181818;stroke-width:0.5;" width="329" x="1040.5" y="1142.5"/><ellipse cx="1109.75" cy="1158.5" fill="#ADD1B2" rx="11" ry="11" style="stroke:#181818;stroke-width:1.0;"/><path d="M1112.5156,1154.375 Q1112.6719,1154.1563 1112.8594,1154.0469 Q1113.0469,1153.9375 1113.2656,1153.9375 Q1113.6406,1153.9375 1113.875,1154.2031 Q1114.1094,1154.4531 1114.1094,1155.0625 L1114.1094,1156.5156 Q1114.1094,1157.125 1113.875,1157.3906 Q1113.6406,1157.6563 1113.2656,1157.6563 Q1112.9219,1157.6563 1112.7188,1157.4531 Q1112.5156,1157.2656 1112.4063,1156.75 Q1112.3594,1156.3906 1112.1719,1156.2031 Q1111.8438,1155.8281 1111.2344,1155.6094 Q1110.625,1155.3906 1110,1155.3906 Q1109.2344,1155.3906 1108.5938,1155.7188 Q1107.9688,1156.0469 1107.4688,1156.7969 Q1106.9844,1157.5469 1106.9844,1158.5781 L1106.9844,1159.6719 Q1106.9844,1160.9063 1107.875,1161.7344 Q1108.7656,1162.5469 1110.3594,1162.5469 Q1111.2969,1162.5469 1111.9531,1162.2969 Q1112.3438,1162.1406 1112.7656,1161.7031 Q1113.0313,1161.4375 1113.1719,1161.3594 Q1113.3281,1161.2813 1113.5313,1161.2813 Q1113.8594,1161.2813 1114.1094,1161.5469 Q1114.375,1161.7969 1114.375,1162.1406 Q1114.375,1162.4844 1114.0313,1162.8906 Q1113.5313,1163.4688 1112.7344,1163.7969 Q1111.6563,1164.25 1110.3594,1164.25 Q1108.8438,1164.25 1107.6406,1163.625 Q1106.6563,1163.125 1105.9688,1162.0625 Q1105.2813,1160.9844 1105.2813,1159.7031 L1105.2813,1158.5469 Q1105.2813,1157.2188 1105.8906,1156.0781 Q1106.5156,1154.9219 1107.6094,1154.3125 Q1108.7031,1153.6875 1109.9375,1153.6875 Q1110.6719,1153.6875 1111.3125,1153.8594 Q1111.9688,1154.0156 1112.5156,1154.375 Z " fill="#000000"/><text fill="#000000" font-family="sans-serif" font-size="14" lengthAdjust="spacing" textLength="182" x="1130.25" y="1164.2969">EventNotificationPageActivity</text><line style="stroke:#181818;stroke-width:0.5;" x1="1041.5" x2="1368.5" y1="1174.5" y2="1174.5"/><line style="stroke:#181818;stroke-width:0.5;" x1="1041.5" x2="1368.5" y1="1182.5" y2="1182.5"/><text fill="#000000" font-family="sans-serif" font-size="14" lengthAdjust="spacing" textLength="204" x="1046.5" y="1201.6074">+EventNotificationPageActivity():</text><text fill="#000000" font-family="sans-serif" font-size="14" lengthAdjust="spacing" textLength="97" x="1046.5" y="1220.2285">+refresh(): void</text><text fill="#000000" font-family="sans-serif" font-size="14" lengthAdjust="spacing" textLength="163" x="1046.5" y="1238.8496">#onCreate(Bundle?): void</text><text fill="#000000" font-family="sans-serif" font-size="14" lengthAdjust="spacing" textLength="317" x="1046.5" y="1257.4707">+onNotificationCreated(Notification, Boolean): void</text></g><!--class EventOrganizedFragment--><g id="elem_EventOrganizedFragment"><rect codeLine="56" fill="#F1F1F1" height="271.4531" id="EventOrganizedFragment" rx="3.5" ry="3.5" style="stroke:#181818;stroke-width:0.5;" width="378" x="302" y="492"/><ellipse cx="405.75" cy="508" fill="#ADD1B2" rx="11" ry="11" style="stroke:#181818;stroke-width:1.0;"/><path d="M408.5156,503.875 Q408.6719,503.6563 408.8594,503.5469 Q409.0469,503.4375 409.2656,503.4375 Q409.6406,503.4375 409.875,503.7031 Q410.1094,503.9531 410.1094,504.5625 L410.1094,506.0156 Q410.1094,506.625 409.875,506.8906 Q409.6406,507.1563 409.2656,507.1563 Q408.9219,507.1563 408.7188,506.9531 Q408.5156,506.7656 408.4063,506.25 Q408.3594,505.8906 408.1719,505.7031 Q407.8438,505.3281 407.2344,505.1094 Q406.625,504.8906 406,504.8906 Q405.2344,504.8906 404.5938,505.2188 Q403.9688,505.5469 403.4688,506.2969 Q402.9844,507.0469 402.9844,508.0781 L402.9844,509.1719 Q402.9844,510.4063 403.875,511.2344 Q404.7656,512.0469 406.3594,512.0469 Q407.2969,512.0469 407.9531,511.7969 Q408.3438,511.6406 408.7656,511.2031 Q409.0313,510.9375 409.1719,510.8594 Q409.3281,510.7813 409.5313,510.7813 Q409.8594,510.7813 410.1094,511.0469 Q410.375,511.2969 410.375,511.6406 Q410.375,511.9844 410.0313,512.3906 Q409.5313,512.9688 408.7344,513.2969 Q407.6563,513.75 406.3594,513.75 Q404.8438,513.75 403.6406,513.125 Q402.6563,512.625 401.9688,511.5625 Q401.2813,510.4844 401.2813,509.2031 L401.2813,508.0469 Q401.2813,506.7188 401.8906,505.5781 Q402.5156,504.4219 403.6094,503.8125 Q404.7031,503.1875 405.9375,503.1875 Q406.6719,503.1875 407.3125,503.3594 Q407.9688,503.5156 408.5156,503.875 Z " fill="#000000"/><text fill="#000000" font-family="sans-serif" font-size="14" lengthAdjust="spacing" textLength="162" x="426.25" y="513.7969">EventOrganizedFragment</text><line style="stroke:#181818;stroke-width:0.5;" x1="303" x2="679" y1="524" y2="524"/><line style="stroke:#181818;stroke-width:0.5;" x1="303" x2="679" y1="532" y2="532"/><text fill="#000000" font-family="sans-serif" font-size="14" lengthAdjust="spacing" textLength="184" x="308" y="551.1074">+EventOrganizedFragment():</text><text fill="#000000" font-family="sans-serif" font-size="14" lengthAdjust="spacing" textLength="137" x="308" y="569.7285">+onNoIdFound(): void</text><text fill="#000000" font-family="sans-serif" font-size="14" lengthAdjust="spacing" textLength="155" x="308" y="588.3496">+refreshEventList(): void</text><text fill="#000000" font-family="sans-serif" font-size="14" lengthAdjust="spacing" textLength="200" x="308" y="606.9707">+onProfileFetched(Profile): void</text><text fill="#000000" font-family="sans-serif" font-size="14" lengthAdjust="spacing" textLength="233" x="308" y="625.5918">+onEventFetchError(Exception): void</text><text fill="#000000" font-family="sans-serif" font-size="14" lengthAdjust="spacing" textLength="196" x="308" y="644.2129">+onEventFetched(Profile): void</text><text fill="#000000" font-family="sans-serif" font-size="14" lengthAdjust="spacing" textLength="117" x="308" y="662.834">+onDestroy(): void</text><text fill="#000000" font-family="sans-serif" font-size="14" lengthAdjust="spacing" textLength="249" x="308" y="681.4551">+onProfileFetchFailure(Exception): void</text><text fill="#000000" font-family="sans-serif" font-size="14" lengthAdjust="spacing" textLength="120" x="308" y="700.0762">+onResume(): void</text><text fill="#000000" font-family="sans-serif" font-size="14" lengthAdjust="spacing" textLength="249" x="308" y="718.6973">+onItemClick(Event, adapterType): void</text><text fill="#000000" font-family="sans-serif" font-size="14" lengthAdjust="spacing" textLength="203" x="308" y="737.3184">+onPictureLoaded(Bitmap): void</text><text fill="#000000" font-family="sans-serif" font-size="14" lengthAdjust="spacing" textLength="366" x="308" y="755.9395">+onCreateView(LayoutInflater, ViewGroup, Bundle): View?</text></g><!--class MainActivity--><g id="elem_MainActivity"><rect codeLine="70" fill="#F1F1F1" height="103.8633" id="MainActivity" rx="3.5" ry="3.5" style="stroke:#181818;stroke-width:0.5;" width="235" x="7" y="575.5"/><ellipse cx="83.25" cy="591.5" fill="#ADD1B2" rx="11" ry="11" style="stroke:#181818;stroke-width:1.0;"/><path d="M86.0156,587.375 Q86.1719,587.1563 86.3594,587.0469 Q86.5469,586.9375 86.7656,586.9375 Q87.1406,586.9375 87.375,587.2031 Q87.6094,587.4531 87.6094,588.0625 L87.6094,589.5156 Q87.6094,590.125 87.375,590.3906 Q87.1406,590.6563 86.7656,590.6563 Q86.4219,590.6563 86.2188,590.4531 Q86.0156,590.2656 85.9063,589.75 Q85.8594,589.3906 85.6719,589.2031 Q85.3438,588.8281 84.7344,588.6094 Q84.125,588.3906 83.5,588.3906 Q82.7344,588.3906 82.0938,588.7188 Q81.4688,589.0469 80.9688,589.7969 Q80.4844,590.5469 80.4844,591.5781 L80.4844,592.6719 Q80.4844,593.9063 81.375,594.7344 Q82.2656,595.5469 83.8594,595.5469 Q84.7969,595.5469 85.4531,595.2969 Q85.8438,595.1406 86.2656,594.7031 Q86.5313,594.4375 86.6719,594.3594 Q86.8281,594.2813 87.0313,594.2813 Q87.3594,594.2813 87.6094,594.5469 Q87.875,594.7969 87.875,595.1406 Q87.875,595.4844 87.5313,595.8906 Q87.0313,596.4688 86.2344,596.7969 Q85.1563,597.25 83.8594,597.25 Q82.3438,597.25 81.1406,596.625 Q80.1563,596.125 79.4688,595.0625 Q78.7813,593.9844 78.7813,592.7031 L78.7813,591.5469 Q78.7813,590.2188 79.3906,589.0781 Q80.0156,587.9219 81.1094,587.3125 Q82.2031,586.6875 83.4375,586.6875 Q84.1719,586.6875 84.8125,586.8594 Q85.4688,587.0156 86.0156,587.375 Z " fill="#000000"/><text fill="#000000" font-family="sans-serif" font-size="14" lengthAdjust="spacing" textLength="74" x="103.75" y="597.2969">MainActivity</text><line style="stroke:#181818;stroke-width:0.5;" x1="8" x2="241" y1="607.5" y2="607.5"/><line style="stroke:#181818;stroke-width:0.5;" x1="8" x2="241" y1="615.5" y2="615.5"/><text fill="#000000" font-family="sans-serif" font-size="14" lengthAdjust="spacing" textLength="96" x="13" y="634.6074">+MainActivity():</text><text fill="#000000" font-family="sans-serif" font-size="14" lengthAdjust="spacing" textLength="155" x="13" y="653.2285">#onCreate(Bundle): void</text><text fill="#000000" font-family="sans-serif" font-size="14" lengthAdjust="spacing" textLength="223" x="13" y="671.8496">-setupBottomNavigationView(): void</text></g><!--class MapDisplayActivity--><g id="elem_MapDisplayActivity"><rect codeLine="75" fill="#F1F1F1" height="215.5898" id="MapDisplayActivity" rx="3.5" ry="3.5" style="stroke:#181818;stroke-width:0.5;" width="348" x="1031" y="891.5"/><ellipse cx="1142.25" cy="907.5" fill="#ADD1B2" rx="11" ry="11" style="stroke:#181818;stroke-width:1.0;"/><path d="M1145.0156,903.375 Q1145.1719,903.1563 1145.3594,903.0469 Q1145.5469,902.9375 1145.7656,902.9375 Q1146.1406,902.9375 1146.375,903.2031 Q1146.6094,903.4531 1146.6094,904.0625 L1146.6094,905.5156 Q1146.6094,906.125 1146.375,906.3906 Q1146.1406,906.6563 1145.7656,906.6563 Q1145.4219,906.6563 1145.2188,906.4531 Q1145.0156,906.2656 1144.9063,905.75 Q1144.8594,905.3906 1144.6719,905.2031 Q1144.3438,904.8281 1143.7344,904.6094 Q1143.125,904.3906 1142.5,904.3906 Q1141.7344,904.3906 1141.0938,904.7188 Q1140.4688,905.0469 1139.9688,905.7969 Q1139.4844,906.5469 1139.4844,907.5781 L1139.4844,908.6719 Q1139.4844,909.9063 1140.375,910.7344 Q1141.2656,911.5469 1142.8594,911.5469 Q1143.7969,911.5469 1144.4531,911.2969 Q1144.8438,911.1406 1145.2656,910.7031 Q1145.5313,910.4375 1145.6719,910.3594 Q1145.8281,910.2813 1146.0313,910.2813 Q1146.3594,910.2813 1146.6094,910.5469 Q1146.875,910.7969 1146.875,911.1406 Q1146.875,911.4844 1146.5313,911.8906 Q1146.0313,912.4688 1145.2344,912.7969 Q1144.1563,913.25 1142.8594,913.25 Q1141.3438,913.25 1140.1406,912.625 Q1139.1563,912.125 1138.4688,911.0625 Q1137.7813,909.9844 1137.7813,908.7031 L1137.7813,907.5469 Q1137.7813,906.2188 1138.3906,905.0781 Q1139.0156,903.9219 1140.1094,903.3125 Q1141.2031,902.6875 1142.4375,902.6875 Q1143.1719,902.6875 1143.8125,902.8594 Q1144.4688,903.0156 1145.0156,903.375 Z " fill="#000000"/><text fill="#000000" font-family="sans-serif" font-size="14" lengthAdjust="spacing" textLength="117" x="1162.75" y="913.2969">MapDisplayActivity</text><line style="stroke:#181818;stroke-width:0.5;" x1="1032" x2="1378" y1="923.5" y2="923.5"/><line style="stroke:#181818;stroke-width:0.5;" x1="1032" x2="1378" y1="931.5" y2="931.5"/><text fill="#000000" font-family="sans-serif" font-size="14" lengthAdjust="spacing" textLength="139" x="1037" y="950.6074">+MapDisplayActivity():</text><text fill="#000000" font-family="sans-serif" font-size="14" lengthAdjust="spacing" textLength="336" x="1037" y="969.2285">+onRequestPermissionsResult(int, String[], int[]): void</text><text fill="#000000" font-family="sans-serif" font-size="14" lengthAdjust="spacing" textLength="290" x="1037" y="987.8496">-createMarker(double, double, String): Marker</text><text fill="#000000" font-family="sans-serif" font-size="14" lengthAdjust="spacing" textLength="148" x="1037" y="1006.4707">+showAttendees(): void</text><text fill="#000000" font-family="sans-serif" font-size="14" lengthAdjust="spacing" textLength="108" x="1037" y="1025.0918">+onPause(): void</text><text fill="#000000" font-family="sans-serif" font-size="14" lengthAdjust="spacing" textLength="243" x="1037" y="1043.7129">+onLocationPermissionGranted(): void</text><text fill="#000000" font-family="sans-serif" font-size="14" lengthAdjust="spacing" textLength="155" x="1037" y="1062.334">+onCreate(Bundle): void</text><text fill="#000000" font-family="sans-serif" font-size="14" lengthAdjust="spacing" textLength="120" x="1037" y="1080.9551">+onResume(): void</text><text fill="#000000" font-family="sans-serif" font-size="14" lengthAdjust="spacing" textLength="236" x="1037" y="1099.5762">+onLocationPermissionDenied(): void</text></g><!--class NotificationListener--><g id="elem_NotificationListener"><rect codeLine="86" fill="#F1F1F1" height="79.2031" id="NotificationListener" rx="3.5" ry="3.5" style="stroke:#181818;stroke-width:0.5;" width="329" x="1965.5" y="1216"/><ellipse cx="2065.25" cy="1238.291" fill="#B4A7E5" rx="11" ry="11" style="stroke:#181818;stroke-width:1.0;"/><path d="M2066.2031,1234.9316 L2066.2031,1241.5879 L2067.9219,1241.5879 Q2068.5313,1241.5879 2068.7969,1241.8223 Q2069.0625,1242.0566 2069.0625,1242.4473 Q2069.0625,1242.8223 2068.7969,1243.0566 Q2068.5313,1243.291 2067.9219,1243.291 L2062.7813,1243.291 Q2062.1719,1243.291 2061.9063,1243.0566 Q2061.6406,1242.8223 2061.6406,1242.4316 Q2061.6406,1242.0566 2061.9063,1241.8223 Q2062.1719,1241.5879 2062.7813,1241.5879 L2064.5,1241.5879 L2064.5,1234.9316 L2062.7813,1234.9316 Q2062.1719,1234.9316 2061.9063,1234.6973 Q2061.6406,1234.4629 2061.6406,1234.0723 Q2061.6406,1233.6973 2061.9063,1233.4629 Q2062.1719,1233.2285 2062.7813,1233.2285 L2067.9219,1233.2285 Q2068.5313,1233.2285 2068.7969,1233.4629 Q2069.0625,1233.6973 2069.0625,1234.0723 Q2069.0625,1234.4629 2068.7969,1234.6973 Q2068.5313,1234.9316 2067.9219,1234.9316 L2066.2031,1234.9316 Z " fill="#000000"/><text fill="#000000" font-family="sans-serif" font-size="12" font-style="italic" lengthAdjust="spacing" textLength="61" x="2115.75" y="1233.9492">&#171;interface&#187;</text><text fill="#000000" font-family="sans-serif" font-size="14" font-style="italic" lengthAdjust="spacing" textLength="121" x="2085.75" y="1252.0684">NotificationListener</text><line style="stroke:#181818;stroke-width:0.5;" x1="1966.5" x2="2293.5" y1="1260.582" y2="1260.582"/><line style="stroke:#181818;stroke-width:0.5;" x1="1966.5" x2="2293.5" y1="1268.582" y2="1268.582"/><text fill="#000000" font-family="sans-serif" font-size="14" lengthAdjust="spacing" textLength="317" x="1971.5" y="1287.6895">+onNotificationCreated(Notification, Boolean): void</text></g><!--class ReuseQRCodeScannerActivity--><g id="elem_ReuseQRCodeScannerActivity"><rect codeLine="89" fill="#F1F1F1" height="103.8633" id="ReuseQRCodeScannerActivity" rx="3.5" ry="3.5" style="stroke:#181818;stroke-width:0.5;" width="348" x="1956" y="381.5"/><ellipse cx="2029.25" cy="397.5" fill="#ADD1B2" rx="11" ry="11" style="stroke:#181818;stroke-width:1.0;"/><path d="M2032.0156,393.375 Q2032.1719,393.1563 2032.3594,393.0469 Q2032.5469,392.9375 2032.7656,392.9375 Q2033.1406,392.9375 2033.375,393.2031 Q2033.6094,393.4531 2033.6094,394.0625 L2033.6094,395.5156 Q2033.6094,396.125 2033.375,396.3906 Q2033.1406,396.6563 2032.7656,396.6563 Q2032.4219,396.6563 2032.2188,396.4531 Q2032.0156,396.2656 2031.9063,395.75 Q2031.8594,395.3906 2031.6719,395.2031 Q2031.3438,394.8281 2030.7344,394.6094 Q2030.125,394.3906 2029.5,394.3906 Q2028.7344,394.3906 2028.0938,394.7188 Q2027.4688,395.0469 2026.9688,395.7969 Q2026.4844,396.5469 2026.4844,397.5781 L2026.4844,398.6719 Q2026.4844,399.9063 2027.375,400.7344 Q2028.2656,401.5469 2029.8594,401.5469 Q2030.7969,401.5469 2031.4531,401.2969 Q2031.8438,401.1406 2032.2656,400.7031 Q2032.5313,400.4375 2032.6719,400.3594 Q2032.8281,400.2813 2033.0313,400.2813 Q2033.3594,400.2813 2033.6094,400.5469 Q2033.875,400.7969 2033.875,401.1406 Q2033.875,401.4844 2033.5313,401.8906 Q2033.0313,402.4688 2032.2344,402.7969 Q2031.1563,403.25 2029.8594,403.25 Q2028.3438,403.25 2027.1406,402.625 Q2026.1563,402.125 2025.4688,401.0625 Q2024.7813,399.9844 2024.7813,398.7031 L2024.7813,397.5469 Q2024.7813,396.2188 2025.3906,395.0781 Q2026.0156,393.9219 2027.1094,393.3125 Q2028.2031,392.6875 2029.4375,392.6875 Q2030.1719,392.6875 2030.8125,392.8594 Q2031.4688,393.0156 2032.0156,393.375 Z " fill="#000000"/><text fill="#000000" font-family="sans-serif" font-size="14" lengthAdjust="spacing" textLength="193" x="2049.75" y="403.2969">ReuseQRCodeScannerActivity</text><line style="stroke:#181818;stroke-width:0.5;" x1="1957" x2="2303" y1="413.5" y2="413.5"/><line style="stroke:#181818;stroke-width:0.5;" x1="1957" x2="2303" y1="421.5" y2="421.5"/><text fill="#000000" font-family="sans-serif" font-size="14" lengthAdjust="spacing" textLength="215" x="1962" y="440.6074">+ReuseQRCodeScannerActivity():</text><text fill="#000000" font-family="sans-serif" font-size="14" lengthAdjust="spacing" textLength="155" x="1962" y="459.2285">#onCreate(Bundle): void</text><text fill="#000000" font-family="sans-serif" font-size="14" lengthAdjust="spacing" textLength="336" x="1962" y="477.8496">+onRequestPermissionsResult(int, String[], int[]): void</text></g><!--class SignUpViewAdapter--><g id="elem_SignUpViewAdapter"><rect codeLine="94" fill="#F1F1F1" height="122.4844" id="SignUpViewAdapter" rx="3.5" ry="3.5" style="stroke:#181818;stroke-width:0.5;" width="404" x="1478" y="752.5"/><ellipse cx="1613.75" cy="768.5" fill="#ADD1B2" rx="11" ry="11" style="stroke:#181818;stroke-width:1.0;"/><path d="M1616.5156,764.375 Q1616.6719,764.1563 1616.8594,764.0469 Q1617.0469,763.9375 1617.2656,763.9375 Q1617.6406,763.9375 1617.875,764.2031 Q1618.1094,764.4531 1618.1094,765.0625 L1618.1094,766.5156 Q1618.1094,767.125 1617.875,767.3906 Q1617.6406,767.6563 1617.2656,767.6563 Q1616.9219,767.6563 1616.7188,767.4531 Q1616.5156,767.2656 1616.4063,766.75 Q1616.3594,766.3906 1616.1719,766.2031 Q1615.8438,765.8281 1615.2344,765.6094 Q1614.625,765.3906 1614,765.3906 Q1613.2344,765.3906 1612.5938,765.7188 Q1611.9688,766.0469 1611.4688,766.7969 Q1610.9844,767.5469 1610.9844,768.5781 L1610.9844,769.6719 Q1610.9844,770.9063 1611.875,771.7344 Q1612.7656,772.5469 1614.3594,772.5469 Q1615.2969,772.5469 1615.9531,772.2969 Q1616.3438,772.1406 1616.7656,771.7031 Q1617.0313,771.4375 1617.1719,771.3594 Q1617.3281,771.2813 1617.5313,771.2813 Q1617.8594,771.2813 1618.1094,771.5469 Q1618.375,771.7969 1618.375,772.1406 Q1618.375,772.4844 1618.0313,772.8906 Q1617.5313,773.4688 1616.7344,773.7969 Q1615.6563,774.25 1614.3594,774.25 Q1612.8438,774.25 1611.6406,773.625 Q1610.6563,773.125 1609.9688,772.0625 Q1609.2813,770.9844 1609.2813,769.7031 L1609.2813,768.5469 Q1609.2813,767.2188 1609.8906,766.0781 Q1610.5156,764.9219 1611.6094,764.3125 Q1612.7031,763.6875 1613.9375,763.6875 Q1614.6719,763.6875 1615.3125,763.8594 Q1615.9688,764.0156 1616.5156,764.375 Z " fill="#000000"/><text fill="#000000" font-family="sans-serif" font-size="14" lengthAdjust="spacing" textLength="124" x="1634.25" y="774.2969">SignUpViewAdapter</text><line style="stroke:#181818;stroke-width:0.5;" x1="1479" x2="1881" y1="784.5" y2="784.5"/><text fill="#000000" font-family="sans-serif" font-size="14" lengthAdjust="spacing" textLength="87" x="1484" y="803.6074">itemCount: int</text><line style="stroke:#181818;stroke-width:0.5;" x1="1479" x2="1881" y1="811.1211" y2="811.1211"/><text fill="#000000" font-family="sans-serif" font-size="14" lengthAdjust="spacing" textLength="311" x="1484" y="830.2285">+SignUpViewAdapter(Context, ArrayList&lt;String&gt;):</text><text fill="#000000" font-family="sans-serif" font-size="14" lengthAdjust="spacing" textLength="392" x="1484" y="848.8496">+onCreateViewHolder(ViewGroup, int): SignupCardViewHolder</text><text fill="#000000" font-family="sans-serif" font-size="14" lengthAdjust="spacing" textLength="334" x="1484" y="867.4707">+onBindViewHolder(SignupCardViewHolder, int): void</text></g><!--class SignupCardViewHolder--><g id="elem_SignupCardViewHolder"><rect codeLine="100" fill="#F1F1F1" height="85.2422" id="SignupCardViewHolder" rx="3.5" ry="3.5" style="stroke:#181818;stroke-width:0.5;" width="208" x="2026" y="771"/><ellipse cx="2054.95" cy="787" fill="#ADD1B2" rx="11" ry="11" style="stroke:#181818;stroke-width:1.0;"/><path d="M2057.7156,782.875 Q2057.8719,782.6563 2058.0594,782.5469 Q2058.2469,782.4375 2058.4656,782.4375 Q2058.8406,782.4375 2059.075,782.7031 Q2059.3094,782.9531 2059.3094,783.5625 L2059.3094,785.0156 Q2059.3094,785.625 2059.075,785.8906 Q2058.8406,786.1563 2058.4656,786.1563 Q2058.1219,786.1563 2057.9188,785.9531 Q2057.7156,785.7656 2057.6063,785.25 Q2057.5594,784.8906 2057.3719,784.7031 Q2057.0438,784.3281 2056.4344,784.1094 Q2055.825,783.8906 2055.2,783.8906 Q2054.4344,783.8906 2053.7938,784.2188 Q2053.1688,784.5469 2052.6688,785.2969 Q2052.1844,786.0469 2052.1844,787.0781 L2052.1844,788.1719 Q2052.1844,789.4063 2053.075,790.2344 Q2053.9656,791.0469 2055.5594,791.0469 Q2056.4969,791.0469 2057.1531,790.7969 Q2057.5438,790.6406 2057.9656,790.2031 Q2058.2313,789.9375 2058.3719,789.8594 Q2058.5281,789.7813 2058.7313,789.7813 Q2059.0594,789.7813 2059.3094,790.0469 Q2059.575,790.2969 2059.575,790.6406 Q2059.575,790.9844 2059.2313,791.3906 Q2058.7313,791.9688 2057.9344,792.2969 Q2056.8563,792.75 2055.5594,792.75 Q2054.0438,792.75 2052.8406,792.125 Q2051.8563,791.625 2051.1688,790.5625 Q2050.4813,789.4844 2050.4813,788.2031 L2050.4813,787.0469 Q2050.4813,785.7188 2051.0906,784.5781 Q2051.7156,783.4219 2052.8094,782.8125 Q2053.9031,782.1875 2055.1375,782.1875 Q2055.8719,782.1875 2056.5125,782.3594 Q2057.1688,782.5156 2057.7156,782.875 Z " fill="#000000"/><text fill="#000000" font-family="sans-serif" font-size="14" lengthAdjust="spacing" textLength="145" x="2072.05" y="792.7969">SignupCardViewHolder</text><line style="stroke:#181818;stroke-width:0.5;" x1="2027" x2="2233" y1="803" y2="803"/><line style="stroke:#181818;stroke-width:0.5;" x1="2027" x2="2233" y1="811" y2="811"/><text fill="#000000" font-family="sans-serif" font-size="14" lengthAdjust="spacing" textLength="196" x="2032" y="830.1074">+SignupCardViewHolder(View):</text><text fill="#000000" font-family="sans-serif" font-size="14" lengthAdjust="spacing" textLength="123" x="2032" y="848.7285">+bindView(int): void</text></g><!--class ViewAttendeeCheckinActivity--><g id="elem_ViewAttendeeCheckinActivity"><rect codeLine="104" fill="#F1F1F1" height="85.2422" id="ViewAttendeeCheckinActivity" rx="3.5" ry="3.5" style="stroke:#181818;stroke-width:0.5;" width="215" x="1097.5" y="651"/><ellipse cx="1113.4" cy="667" fill="#ADD1B2" rx="11" ry="11" style="stroke:#181818;stroke-width:1.0;"/><path d="M1116.1656,662.875 Q1116.3219,662.6563 1116.5094,662.5469 Q1116.6969,662.4375 1116.9156,662.4375 Q1117.2906,662.4375 1117.525,662.7031 Q1117.7594,662.9531 1117.7594,663.5625 L1117.7594,665.0156 Q1117.7594,665.625 1117.525,665.8906 Q1117.2906,666.1563 1116.9156,666.1563 Q1116.5719,666.1563 1116.3688,665.9531 Q1116.1656,665.7656 1116.0563,665.25 Q1116.0094,664.8906 1115.8219,664.7031 Q1115.4938,664.3281 1114.8844,664.1094 Q1114.275,663.8906 1113.65,663.8906 Q1112.8844,663.8906 1112.2438,664.2188 Q1111.6188,664.5469 1111.1188,665.2969 Q1110.6344,666.0469 1110.6344,667.0781 L1110.6344,668.1719 Q1110.6344,669.4063 1111.525,670.2344 Q1112.4156,671.0469 1114.0094,671.0469 Q1114.9469,671.0469 1115.6031,670.7969 Q1115.9938,670.6406 1116.4156,670.2031 Q1116.6813,669.9375 1116.8219,669.8594 Q1116.9781,669.7813 1117.1813,669.7813 Q1117.5094,669.7813 1117.7594,670.0469 Q1118.025,670.2969 1118.025,670.6406 Q1118.025,670.9844 1117.6813,671.3906 Q1117.1813,671.9688 1116.3844,672.2969 Q1115.3063,672.75 1114.0094,672.75 Q1112.4938,672.75 1111.2906,672.125 Q1110.3063,671.625 1109.6188,670.5625 Q1108.9313,669.4844 1108.9313,668.2031 L1108.9313,667.0469 Q1108.9313,665.7188 1109.5406,664.5781 Q1110.1656,663.4219 1111.2594,662.8125 Q1112.3531,662.1875 1113.5875,662.1875 Q1114.3219,662.1875 1114.9625,662.3594 Q1115.6188,662.5156 1116.1656,662.875 Z " fill="#000000"/><text fill="#000000" font-family="sans-serif" font-size="14" lengthAdjust="spacing" textLength="181" x="1127.6" y="672.7969">ViewAttendeeCheckinActivity</text><line style="stroke:#181818;stroke-width:0.5;" x1="1098.5" x2="1311.5" y1="683" y2="683"/><line style="stroke:#181818;stroke-width:0.5;" x1="1098.5" x2="1311.5" y1="691" y2="691"/><text fill="#000000" font-family="sans-serif" font-size="14" lengthAdjust="spacing" textLength="203" x="1103.5" y="710.1074">+ViewAttendeeCheckinActivity():</text><text fill="#000000" font-family="sans-serif" font-size="14" lengthAdjust="spacing" textLength="163" x="1103.5" y="728.7285">#onCreate(Bundle?): void</text></g><!--class ViewMilestonesActivity--><g id="elem_ViewMilestonesActivity"><rect codeLine="108" fill="#F1F1F1" height="159.7266" id="ViewMilestonesActivity" rx="3.5" ry="3.5" style="stroke:#181818;stroke-width:0.5;" width="398" x="1006" y="1299.5"/><ellipse cx="1130.75" cy="1315.5" fill="#ADD1B2" rx="11" ry="11" style="stroke:#181818;stroke-width:1.0;"/><path d="M1133.5156,1311.375 Q1133.6719,1311.1563 1133.8594,1311.0469 Q1134.0469,1310.9375 1134.2656,1310.9375 Q1134.6406,1310.9375 1134.875,1311.2031 Q1135.1094,1311.4531 1135.1094,1312.0625 L1135.1094,1313.5156 Q1135.1094,1314.125 1134.875,1314.3906 Q1134.6406,1314.6563 1134.2656,1314.6563 Q1133.9219,1314.6563 1133.7188,1314.4531 Q1133.5156,1314.2656 1133.4063,1313.75 Q1133.3594,1313.3906 1133.1719,1313.2031 Q1132.8438,1312.8281 1132.2344,1312.6094 Q1131.625,1312.3906 1131,1312.3906 Q1130.2344,1312.3906 1129.5938,1312.7188 Q1128.9688,1313.0469 1128.4688,1313.7969 Q1127.9844,1314.5469 1127.9844,1315.5781 L1127.9844,1316.6719 Q1127.9844,1317.9063 1128.875,1318.7344 Q1129.7656,1319.5469 1131.3594,1319.5469 Q1132.2969,1319.5469 1132.9531,1319.2969 Q1133.3438,1319.1406 1133.7656,1318.7031 Q1134.0313,1318.4375 1134.1719,1318.3594 Q1134.3281,1318.2813 1134.5313,1318.2813 Q1134.8594,1318.2813 1135.1094,1318.5469 Q1135.375,1318.7969 1135.375,1319.1406 Q1135.375,1319.4844 1135.0313,1319.8906 Q1134.5313,1320.4688 1133.7344,1320.7969 Q1132.6563,1321.25 1131.3594,1321.25 Q1129.8438,1321.25 1128.6406,1320.625 Q1127.6563,1320.125 1126.9688,1319.0625 Q1126.2813,1317.9844 1126.2813,1316.7031 L1126.2813,1315.5469 Q1126.2813,1314.2188 1126.8906,1313.0781 Q1127.5156,1311.9219 1128.6094,1311.3125 Q1129.7031,1310.6875 1130.9375,1310.6875 Q1131.6719,1310.6875 1132.3125,1310.8594 Q1132.9688,1311.0156 1133.5156,1311.375 Z " fill="#000000"/><text fill="#000000" font-family="sans-serif" font-size="14" lengthAdjust="spacing" textLength="140" x="1151.25" y="1321.2969">ViewMilestonesActivity</text><line style="stroke:#181818;stroke-width:0.5;" x1="1007" x2="1403" y1="1331.5" y2="1331.5"/><line style="stroke:#181818;stroke-width:0.5;" x1="1007" x2="1403" y1="1339.5" y2="1339.5"/><text fill="#000000" font-family="sans-serif" font-size="14" lengthAdjust="spacing" textLength="162" x="1012" y="1358.6074">+ViewMilestonesActivity():</text><text fill="#000000" font-family="sans-serif" font-size="14" lengthAdjust="spacing" textLength="386" x="1012" y="1377.2285">+getMilestones(ArrayList&lt;Notification&gt;): ArrayList&lt;Milestone&gt;</text><text fill="#000000" font-family="sans-serif" font-size="14" lengthAdjust="spacing" textLength="163" x="1012" y="1395.8496">#onCreate(Bundle?): void</text><text fill="#000000" font-family="sans-serif" font-size="14" lengthAdjust="spacing" textLength="138" x="1012" y="1414.4707">+setMilestones(): void</text><text fill="#000000" font-family="sans-serif" font-size="14" lengthAdjust="spacing" textLength="314" x="1012" y="1433.0918">+containsMilestoneType(MilestoneType): boolean</text><text fill="#000000" font-family="sans-serif" font-size="14" lengthAdjust="spacing" textLength="149" x="1012" y="1451.7129">+setCheckBoxes(): void</text></g><!--class ViewQRCodesActivity--><g id="elem_ViewQRCodesActivity"><rect codeLine="116" fill="#F1F1F1" height="252.832" id="ViewQRCodesActivity" rx="3.5" ry="3.5" style="stroke:#181818;stroke-width:0.5;" width="325" x="1517.5" y="307"/><ellipse cx="1608.25" cy="323" fill="#ADD1B2" rx="11" ry="11" style="stroke:#181818;stroke-width:1.0;"/><path d="M1611.0156,318.875 Q1611.1719,318.6563 1611.3594,318.5469 Q1611.5469,318.4375 1611.7656,318.4375 Q1612.1406,318.4375 1612.375,318.7031 Q1612.6094,318.9531 1612.6094,319.5625 L1612.6094,321.0156 Q1612.6094,321.625 1612.375,321.8906 Q1612.1406,322.1563 1611.7656,322.1563 Q1611.4219,322.1563 1611.2188,321.9531 Q1611.0156,321.7656 1610.9063,321.25 Q1610.8594,320.8906 1610.6719,320.7031 Q1610.3438,320.3281 1609.7344,320.1094 Q1609.125,319.8906 1608.5,319.8906 Q1607.7344,319.8906 1607.0938,320.2188 Q1606.4688,320.5469 1605.9688,321.2969 Q1605.4844,322.0469 1605.4844,323.0781 L1605.4844,324.1719 Q1605.4844,325.4063 1606.375,326.2344 Q1607.2656,327.0469 1608.8594,327.0469 Q1609.7969,327.0469 1610.4531,326.7969 Q1610.8438,326.6406 1611.2656,326.2031 Q1611.5313,325.9375 1611.6719,325.8594 Q1611.8281,325.7813 1612.0313,325.7813 Q1612.3594,325.7813 1612.6094,326.0469 Q1612.875,326.2969 1612.875,326.6406 Q1612.875,326.9844 1612.5313,327.3906 Q1612.0313,327.9688 1611.2344,328.2969 Q1610.1563,328.75 1608.8594,328.75 Q1607.3438,328.75 1606.1406,328.125 Q1605.1563,327.625 1604.4688,326.5625 Q1603.7813,325.4844 1603.7813,324.2031 L1603.7813,323.0469 Q1603.7813,321.7188 1604.3906,320.5781 Q1605.0156,319.4219 1606.1094,318.8125 Q1607.2031,318.1875 1608.4375,318.1875 Q1609.1719,318.1875 1609.8125,318.3594 Q1610.4688,318.5156 1611.0156,318.875 Z " fill="#000000"/><text fill="#000000" font-family="sans-serif" font-size="14" lengthAdjust="spacing" textLength="135" x="1628.75" y="328.7969">ViewQRCodesActivity</text><line style="stroke:#181818;stroke-width:0.5;" x1="1518.5" x2="1841.5" y1="339" y2="339"/><line style="stroke:#181818;stroke-width:0.5;" x1="1518.5" x2="1841.5" y1="347" y2="347"/><text fill="#000000" font-family="sans-serif" font-size="14" lengthAdjust="spacing" textLength="157" x="1523.5" y="366.1074">+ViewQRCodesActivity():</text><text fill="#000000" font-family="sans-serif" font-size="14" lengthAdjust="spacing" textLength="313" x="1523.5" y="384.7285">-validateQRString(String, QRCodeType): boolean</text><text fill="#000000" font-family="sans-serif" font-size="14" lengthAdjust="spacing" textLength="195" x="1523.5" y="403.3496">-shareQRCode(QRCode): void</text><text fill="#000000" font-family="sans-serif" font-size="14" lengthAdjust="spacing" textLength="241" x="1523.5" y="421.9707">-updateScannedQRCode(String): void</text><text fill="#000000" font-family="sans-serif" font-size="14" lengthAdjust="spacing" textLength="134" x="1523.5" y="440.5918">-initializeViews(): void</text><text fill="#000000" font-family="sans-serif" font-size="14" lengthAdjust="spacing" textLength="244" x="1523.5" y="459.2129">-setupShareButtonClickListener(): void</text><text fill="#000000" font-family="sans-serif" font-size="14" lengthAdjust="spacing" textLength="163" x="1523.5" y="477.834">#onCreate(Bundle?): void</text><text fill="#000000" font-family="sans-serif" font-size="14" lengthAdjust="spacing" textLength="144" x="1523.5" y="496.4551">-populatePages(): void</text><text fill="#000000" font-family="sans-serif" font-size="14" lengthAdjust="spacing" textLength="303" x="1523.5" y="515.0762">-handleQRCodeScanResult(ActivityResult): void</text><text fill="#000000" font-family="sans-serif" font-size="14" lengthAdjust="spacing" textLength="214" x="1523.5" y="533.6973">-setupToolbarClickListener(): void</text><text fill="#000000" font-family="sans-serif" font-size="14" lengthAdjust="spacing" textLength="268" x="1523.5" y="552.3184">-setupReuseQRButtonClickListener(): void</text></g><!--class ViewSignUpsActivity--><g id="elem_ViewSignUpsActivity"><rect codeLine="129" fill="#F1F1F1" height="85.2422" id="ViewSignUpsActivity" rx="3.5" ry="3.5" style="stroke:#181818;stroke-width:0.5;" width="175" x="1117.5" y="771"/><ellipse cx="1140.6" cy="787" fill="#ADD1B2" rx="11" ry="11" style="stroke:#181818;stroke-width:1.0;"/><path d="M1143.3656,782.875 Q1143.5219,782.6563 1143.7094,782.5469 Q1143.8969,782.4375 1144.1156,782.4375 Q1144.4906,782.4375 1144.725,782.7031 Q1144.9594,782.9531 1144.9594,783.5625 L1144.9594,785.0156 Q1144.9594,785.625 1144.725,785.8906 Q1144.4906,786.1563 1144.1156,786.1563 Q1143.7719,786.1563 1143.5688,785.9531 Q1143.3656,785.7656 1143.2563,785.25 Q1143.2094,784.8906 1143.0219,784.7031 Q1142.6938,784.3281 1142.0844,784.1094 Q1141.475,783.8906 1140.85,783.8906 Q1140.0844,783.8906 1139.4438,784.2188 Q1138.8188,784.5469 1138.3188,785.2969 Q1137.8344,786.0469 1137.8344,787.0781 L1137.8344,788.1719 Q1137.8344,789.4063 1138.725,790.2344 Q1139.6156,791.0469 1141.2094,791.0469 Q1142.1469,791.0469 1142.8031,790.7969 Q1143.1938,790.6406 1143.6156,790.2031 Q1143.8813,789.9375 1144.0219,789.8594 Q1144.1781,789.7813 1144.3813,789.7813 Q1144.7094,789.7813 1144.9594,790.0469 Q1145.225,790.2969 1145.225,790.6406 Q1145.225,790.9844 1144.8813,791.3906 Q1144.3813,791.9688 1143.5844,792.2969 Q1142.5063,792.75 1141.2094,792.75 Q1139.6938,792.75 1138.4906,792.125 Q1137.5063,791.625 1136.8188,790.5625 Q1136.1313,789.4844 1136.1313,788.2031 L1136.1313,787.0469 Q1136.1313,785.7188 1136.7406,784.5781 Q1137.3656,783.4219 1138.4594,782.8125 Q1139.5531,782.1875 1140.7875,782.1875 Q1141.5219,782.1875 1142.1625,782.3594 Q1142.8188,782.5156 1143.3656,782.875 Z " fill="#000000"/><text fill="#000000" font-family="sans-serif" font-size="14" lengthAdjust="spacing" textLength="125" x="1156.4" y="792.7969">ViewSignUpsActivity</text><line style="stroke:#181818;stroke-width:0.5;" x1="1118.5" x2="1291.5" y1="803" y2="803"/><line style="stroke:#181818;stroke-width:0.5;" x1="1118.5" x2="1291.5" y1="811" y2="811"/><text fill="#000000" font-family="sans-serif" font-size="14" lengthAdjust="spacing" textLength="147" x="1123.5" y="830.1074">+ViewSignUpsActivity():</text><text fill="#000000" font-family="sans-serif" font-size="14" lengthAdjust="spacing" textLength="163" x="1123.5" y="848.7285">#onCreate(Bundle?): void</text></g><!--reverse link AttendanceCardViewHolder to AttendanceViewAdapter--><g id="link_AttendanceCardViewHolder_AttendanceViewAdapter"><path codeLine="134" d="M1339.03,602.33 C1381.75,602.33 1415.45,602.33 1463.95,602.33 " fill="none" id="AttendanceCardViewHolder-backto-AttendanceViewAdapter" style="stroke:#820000;stroke-width:1.0;"/><ellipse cx="1331.03" cy="602.33" fill="#DDDDDD" rx="8" ry="8" style="stroke:#820000;stroke-width:1.0;"/><line style="stroke:#820000;stroke-width:1.0;" x1="1339.03" x2="1323.03" y1="602.33" y2="602.33"/><line style="stroke:#820000;stroke-width:1.0;" x1="1331.03" x2="1331.03" y1="610.33" y2="594.33"/></g><!--link AttendanceViewAdapter to AttendanceCardViewHolder--><g id="link_AttendanceViewAdapter_AttendanceCardViewHolder"><path codeLine="135" d="M1463.7,609.17 C1415.33,609.17 1371.79,609.17 1329.17,609.17 " fill="none" id="AttendanceViewAdapter-to-AttendanceCardViewHolder" style="stroke:#595959;stroke-width:1.0;stroke-dasharray:7.0,7.0;"/><polygon fill="#595959" points="1323.17,609.17,1332.17,613.17,1328.17,609.17,1332.17,605.17,1323.17,609.17" style="stroke:#595959;stroke-width:1.0;"/><text fill="#000000" font-family="sans-serif" font-size="13" lengthAdjust="spacing" textLength="36" x="1356.43" y="624.1983">create</text></g><!--link CreateNotificationDialog to NotificationListener--><g id="link_CreateNotificationDialog_NotificationListener"><path codeLine="136" d="M1802.66,1268.67 C1855.23,1268.67 1901.13,1268.67 1959.25,1268.67 " fill="none" id="CreateNotificationDialog-NotificationListener" style="stroke:#595959;stroke-width:1.0;"/><polygon fill="#595959" points="1790.66,1268.67,1796.66,1272.67,1802.66,1268.67,1796.66,1264.67,1790.66,1268.67" style="stroke:#595959;stroke-width:1.0;"/><polygon fill="#595959" points="1965.25,1268.67,1956.25,1264.67,1960.25,1268.67,1956.25,1272.67,1965.25,1268.67" style="stroke:#595959;stroke-width:1.0;"/><text fill="#000000" font-family="sans-serif" font-size="13" lengthAdjust="spacing" textLength="7" x="1798.3301" y="1284.1686">1</text><text fill="#000000" font-family="sans-serif" font-size="13" lengthAdjust="spacing" textLength="108" x="1849.3887" y="1283.7894">notificationListener</text><text fill="#000000" font-family="sans-serif" font-size="13" lengthAdjust="spacing" textLength="7" x="1899.8887" y="1301.0804">1</text></g><!--reverse link NotificationListener to CreateNotificationDialog--><g id="link_NotificationListener_CreateNotificationDialog"><path codeLine="150" d="M1949.31,1242.33 C1891.21,1242.33 1843.33,1242.33 1790.76,1242.33 " fill="none" id="NotificationListener-backto-CreateNotificationDialog" style="stroke:#820000;stroke-width:1.0;"/><ellipse cx="1957.31" cy="1242.33" fill="#DDDDDD" rx="8" ry="8" style="stroke:#820000;stroke-width:1.0;"/><line style="stroke:#820000;stroke-width:1.0;" x1="1949.31" x2="1965.31" y1="1242.33" y2="1242.33"/><line style="stroke:#820000;stroke-width:1.0;" x1="1957.31" x2="1957.31" y1="1234.33" y2="1250.33"/></g><!--link EnterEventDetailsActivity to ViewQRCodesActivity--><g id="link_EnterEventDetailsActivity_ViewQRCodesActivity"><path codeLine="137" d="M1365.81,348.5 C1414.66,348.5 1462.36,348.5 1511.33,348.5 " fill="none" id="EnterEventDetailsActivity-to-ViewQRCodesActivity" style="stroke:#595959;stroke-width:1.0;stroke-dasharray:7.0,7.0;"/><polygon fill="#595959" points="1517.33,348.5,1508.33,344.5,1512.33,348.5,1508.33,352.5,1517.33,348.5" style="stroke:#595959;stroke-width:1.0;"/></g><!--link EventMenuActivity to EnterEventDetailsActivity--><g id="link_EventMenuActivity_EnterEventDetailsActivity"><path codeLine="138" d="M946.23,633.5 C1007.37,633.5 1073,633.5 1073,633.5 C1073,633.5 1073,512.86 1073,396.25 " fill="none" id="EventMenuActivity-to-EnterEventDetailsActivity" style="stroke:#595959;stroke-width:1.0;stroke-dasharray:7.0,7.0;"/><polygon fill="#595959" points="1073,390.25,1069,399.25,1073,395.25,1077,399.25,1073,390.25" style="stroke:#595959;stroke-width:1.0;"/></g><!--link EventMenuActivity to EventNotificationPageActivity--><g id="link_EventMenuActivity_EventNotificationPageActivity"><path codeLine="139" d="M843,773.75 C843,917.37 843,1203.5 843,1203.5 C843,1203.5 938.79,1203.5 1034.42,1203.5 " fill="none" id="EventMenuActivity-to-EventNotificationPageActivity" style="stroke:#595959;stroke-width:1.0;stroke-dasharray:7.0,7.0;"/><polygon fill="#595959" points="1040.42,1203.5,1031.42,1199.5,1035.42,1203.5,1031.42,1207.5,1040.42,1203.5" style="stroke:#595959;stroke-width:1.0;"/></g><!--link EventMenuActivity to MapDisplayActivity--><g id="link_EventMenuActivity_MapDisplayActivity"><path codeLine="140" d="M946.21,761.75 C992.98,761.75 1038,761.75 1038,761.75 C1038,761.75 1038,822.6 1038,885.41 " fill="none" id="EventMenuActivity-to-MapDisplayActivity" style="stroke:#595959;stroke-width:1.0;stroke-dasharray:7.0,7.0;"/><polygon fill="#595959" points="1038,891.41,1042,882.41,1038,886.41,1034,882.41,1038,891.41" style="stroke:#595959;stroke-width:1.0;"/></g><!--link EventMenuActivity to ViewAttendeeCheckinActivity--><g id="link_EventMenuActivity_ViewAttendeeCheckinActivity"><path codeLine="141" d="M946.25,693.5 C993.48,693.5 1043.43,693.5 1091.2,693.5 " fill="none" id="EventMenuActivity-to-ViewAttendeeCheckinActivity" style="stroke:#595959;stroke-width:1.0;stroke-dasharray:7.0,7.0;"/><polygon fill="#595959" points="1097.2,693.5,1088.2,689.5,1092.2,693.5,1088.2,697.5,1097.2,693.5" style="stroke:#595959;stroke-width:1.0;"/></g><!--link EventMenuActivity to ViewMilestonesActivity--><g id="link_EventMenuActivity_ViewMilestonesActivity"><path codeLine="142" d="M946.14,766.38 C984.56,766.38 1019,766.38 1019,766.38 C1019,766.38 1019,1127.15 1019,1293.34 " fill="none" id="EventMenuActivity-to-ViewMilestonesActivity" style="stroke:#595959;stroke-width:1.0;stroke-dasharray:7.0,7.0;"/><polygon fill="#595959" points="1019,1299.34,1023,1290.34,1019,1294.34,1015,1290.34,1019,1299.34" style="stroke:#595959;stroke-width:1.0;"/></g><!--link EventMenuActivity to ViewQRCodesActivity--><g id="link_EventMenuActivity_ViewQRCodesActivity"><path codeLine="143" d="M878,613.43 C878,568.44 878,521.25 878,521.25 C878,521.25 1276.8,521.25 1511.22,521.25 " fill="none" id="EventMenuActivity-to-ViewQRCodesActivity" style="stroke:#595959;stroke-width:1.0;stroke-dasharray:7.0,7.0;"/><polygon fill="#595959" points="1517.22,521.25,1508.22,517.25,1512.22,521.25,1508.22,525.25,1517.22,521.25" style="stroke:#595959;stroke-width:1.0;"/></g><!--link ViewQRCodesActivity to EventMenuActivity--><g id="link_ViewQRCodesActivity_EventMenuActivity"><path codeLine="155" d="M1517.45,511.5 C1265.4,511.5 809,511.5 809,511.5 C809,511.5 809,558.58 809,607.41 " fill="none" id="ViewQRCodesActivity-to-EventMenuActivity" style="stroke:#595959;stroke-width:1.0;stroke-dasharray:7.0,7.0;"/><polygon fill="#595959" points="809,613.41,813,604.41,809,608.41,805,604.41,809,613.41" style="stroke:#595959;stroke-width:1.0;"/></g><!--link EventMenuActivity to ViewSignUpsActivity--><g id="link_EventMenuActivity_ViewSignUpsActivity"><path codeLine="144" d="M946.25,757.12 C1053.25,757.12 1205,757.12 1205,757.12 C1205,757.12 1205,756.91 1205,764.77 " fill="none" id="EventMenuActivity-to-ViewSignUpsActivity" style="stroke:#595959;stroke-width:1.0;stroke-dasharray:7.0,7.0;"/><polygon fill="#595959" points="1205,770.77,1209,761.77,1205,765.77,1201,761.77,1205,770.77" style="stroke:#595959;stroke-width:1.0;"/></g><!--link EventNotificationPageActivity to CreateNotificationDialog--><g id="link_EventNotificationPageActivity_CreateNotificationDialog"><path codeLine="145" d="M1369.8,1234 C1435.72,1234 1503.9,1234 1563.19,1234 " fill="none" id="EventNotificationPageActivity-to-CreateNotificationDialog" style="stroke:#595959;stroke-width:1.0;stroke-dasharray:7.0,7.0;"/><polygon fill="#595959" points="1569.19,1234,1560.19,1230,1564.19,1234,1560.19,1238,1569.19,1234" style="stroke:#595959;stroke-width:1.0;"/><text fill="#000000" font-family="sans-serif" font-size="13" lengthAdjust="spacing" textLength="36" x="1432.49" y="1249.0283">create</text></g><!--link EventNotificationPageActivity to NotificationListener--><g id="link_EventNotificationPageActivity_NotificationListener"><path codeLine="146" d="M1369.86,1173 C1601.68,1173 1996,1173 1996,1173 C1996,1173 1996,1176.6 1996,1197.7 " fill="none" id="EventNotificationPageActivity-to-NotificationListener" style="stroke:#008200;stroke-width:1.0;stroke-dasharray:7.0,7.0;"/><polygon fill="none" points="1996,1215.7,2002,1197.7,1990,1197.7,1996,1215.7" style="stroke:#008200;stroke-width:1.0;"/></g><!--link EventOrganizedFragment to EnterEventDetailsActivity--><g id="link_EventOrganizedFragment_EnterEventDetailsActivity"><path codeLine="147" d="M680.14,501.75 C845.37,501.75 1059,501.75 1059,501.75 C1059,501.75 1059,456.49 1059,396.12 " fill="none" id="EventOrganizedFragment-to-EnterEventDetailsActivity" style="stroke:#595959;stroke-width:1.0;stroke-dasharray:7.0,7.0;"/><polygon fill="#595959" points="1059,390.12,1055,399.12,1059,395.12,1063,399.12,1059,390.12" style="stroke:#595959;stroke-width:1.0;"/></g><!--link EventOrganizedFragment to EventMenuActivity--><g id="link_EventOrganizedFragment_EventMenuActivity"><path codeLine="148" d="M680.14,688.25 C700.66,688.25 714.95,688.25 733.87,688.25 " fill="none" id="EventOrganizedFragment-to-EventMenuActivity" style="stroke:#595959;stroke-width:1.0;stroke-dasharray:7.0,7.0;"/><polygon fill="#595959" points="739.87,688.25,730.87,684.25,734.87,688.25,730.87,692.25,739.87,688.25" style="stroke:#595959;stroke-width:1.0;"/></g><!--link MainActivity to EventOrganizedFragment--><g id="link_MainActivity_EventOrganizedFragment"><path codeLine="149" d="M242.23,627.5 C261.38,627.5 275.63,627.5 295.98,627.5 " fill="none" id="MainActivity-to-EventOrganizedFragment" style="stroke:#595959;stroke-width:1.0;stroke-dasharray:7.0,7.0;"/><polygon fill="#595959" points="301.98,627.5,292.98,623.5,296.98,627.5,292.98,631.5,301.98,627.5" style="stroke:#595959;stroke-width:1.0;"/><text fill="#000000" font-family="sans-serif" font-size="13" lengthAdjust="spacing" textLength="36" x="235.1" y="642.5283">create</text></g><!--link SignUpViewAdapter to SignupCardViewHolder--><g id="link_SignUpViewAdapter_SignupCardViewHolder"><path codeLine="151" d="M1882.29,827.67 C1931.9,827.67 1977,827.67 2019.81,827.67 " fill="none" id="SignUpViewAdapter-to-SignupCardViewHolder" style="stroke:#595959;stroke-width:1.0;stroke-dasharray:7.0,7.0;"/><polygon fill="#595959" points="2025.81,827.67,2016.81,823.67,2020.81,827.67,2016.81,831.67,2025.81,827.67" style="stroke:#595959;stroke-width:1.0;"/><text fill="#000000" font-family="sans-serif" font-size="13" lengthAdjust="spacing" textLength="36" x="1917.05" y="842.6983">create</text></g><!--reverse link SignupCardViewHolder to SignUpViewAdapter--><g id="link_SignupCardViewHolder_SignUpViewAdapter"><path codeLine="152" d="M2009.91,799.33 C1967.08,799.33 1931.93,799.33 1882.27,799.33 " fill="none" id="SignupCardViewHolder-backto-SignUpViewAdapter" style="stroke:#820000;stroke-width:1.0;"/><ellipse cx="2017.91" cy="799.33" fill="#DDDDDD" rx="8" ry="8" style="stroke:#820000;stroke-width:1.0;"/><line style="stroke:#820000;stroke-width:1.0;" x1="2009.91" x2="2025.91" y1="799.33" y2="799.33"/><line style="stroke:#820000;stroke-width:1.0;" x1="2017.91" x2="2017.91" y1="791.33" y2="807.33"/></g><!--link ViewAttendeeCheckinActivity to AttendanceViewAdapter--><g id="link_ViewAttendeeCheckinActivity_AttendanceViewAdapter"><path codeLine="153" d="M1324.78,673.17 C1369.68,673.17 1405.48,673.17 1457.89,673.17 " fill="none" id="ViewAttendeeCheckinActivity-AttendanceViewAdapter" style="stroke:#595959;stroke-width:1.0;"/><polygon fill="#595959" points="1312.78,673.17,1318.78,677.17,1324.78,673.17,1318.78,669.17,1312.78,673.17" style="stroke:#595959;stroke-width:1.0;"/><polygon fill="#595959" points="1463.89,673.17,1454.89,669.17,1458.89,673.17,1454.89,677.17,1463.89,673.17" style="stroke:#595959;stroke-width:1.0;"/><text fill="#000000" font-family="sans-serif" font-size="13" lengthAdjust="spacing" textLength="7" x="1320.6044" y="686.3682">1</text><text fill="#000000" font-family="sans-serif" font-size="13" lengthAdjust="spacing" textLength="137" x="1320.7584" y="652.9005">attendanceViewAdapter</text><text fill="#000000" font-family="sans-serif" font-size="13" lengthAdjust="spacing" textLength="7" x="1385.7584" y="670.1915">1</text></g><!--link ViewAttendeeCheckinActivity to AttendanceViewAdapter--><g id="link_ViewAttendeeCheckinActivity_AttendanceViewAdapter"><path codeLine="154" d="M1312.78,695.33 C1357.68,695.33 1405.48,695.33 1457.89,695.33 " fill="none" id="ViewAttendeeCheckinActivity-to-AttendanceViewAdapter" style="stroke:#595959;stroke-width:1.0;stroke-dasharray:7.0,7.0;"/><polygon fill="#595959" points="1463.89,695.33,1454.89,691.33,1458.89,695.33,1454.89,699.33,1463.89,695.33" style="stroke:#595959;stroke-width:1.0;"/><text fill="#000000" font-family="sans-serif" font-size="13" lengthAdjust="spacing" textLength="36" x="1351.34" y="710.3583">create</text></g><!--link ViewQRCodesActivity to ReuseQRCodeScannerActivity--><g id="link_ViewQRCodesActivity_ReuseQRCodeScannerActivity"><path codeLine="156" d="M1842.78,433.5 C1879.52,433.5 1912.66,433.5 1949.85,433.5 " fill="none" id="ViewQRCodesActivity-to-ReuseQRCodeScannerActivity" style="stroke:#595959;stroke-width:1.0;stroke-dasharray:7.0,7.0;"/><polygon fill="#595959" points="1955.85,433.5,1946.85,429.5,1950.85,433.5,1946.85,437.5,1955.85,433.5" style="stroke:#595959;stroke-width:1.0;"/></g><!--link ViewSignUpsActivity to SignUpViewAdapter--><g id="link_ViewSignUpsActivity_SignUpViewAdapter"><path codeLine="157" d="M1304.68,827.67 C1356.68,827.67 1406.88,827.67 1471.54,827.67 " fill="none" id="ViewSignUpsActivity-SignUpViewAdapter" style="stroke:#595959;stroke-width:1.0;"/><polygon fill="#595959" points="1292.68,827.67,1298.68,831.67,1304.68,827.67,1298.68,823.67,1292.68,827.67" style="stroke:#595959;stroke-width:1.0;"/><polygon fill="#595959" points="1477.54,827.67,1468.54,823.67,1472.54,827.67,1468.54,831.67,1477.54,827.67" style="stroke:#595959;stroke-width:1.0;"/><text fill="#000000" font-family="sans-serif" font-size="13" lengthAdjust="spacing" textLength="7" x="1300.5158" y="843.6486">1</text><text fill="#000000" font-family="sans-serif" font-size="13" lengthAdjust="spacing" textLength="113" x="1356.8521" y="842.6251">signUpViewAdapter</text><text fill="#000000" font-family="sans-serif" font-size="13" lengthAdjust="spacing" textLength="7" x="1409.8521" y="859.9161">1</text></g><!--link ViewSignUpsActivity to SignUpViewAdapter--><g id="link_ViewSignUpsActivity_SignUpViewAdapter"><path codeLine="158" d="M1292.68,799.33 C1344.68,799.33 1406.88,799.33 1471.54,799.33 " fill="none" id="ViewSignUpsActivity-to-SignUpViewAdapter" style="stroke:#595959;stroke-width:1.0;stroke-dasharray:7.0,7.0;"/><polygon fill="#595959" points="1477.54,799.33,1468.54,795.33,1472.54,799.33,1468.54,803.33,1477.54,799.33" style="stroke:#595959;stroke-width:1.0;"/><text fill="#000000" font-family="sans-serif" font-size="13" lengthAdjust="spacing" textLength="36" x="1348.11" y="814.3583">create</text></g><!--SRC=[hLTVRzis47_Nf-3I5srrW6p0W2ueKiHsqWP8l3HE-v9b02DTR28ogP5KMdVe9zf7s5i_sOwKB54IARl9b8TOlDFTx_uVVz1BM07HOXrbSA_n1v5iiTGaPH8IpGIFr0FZEPLqHJB6GQzp84BgfN08IKQLEjPQihj2mraY-9nz0N8GHPP2a0GyfJo12PNfHmQVteai1Kd-ZWXv6IJ7vkUFXyGotJ5kIJ7Z6iyU1KkZhptvXkCufRds27TeyKHm3P_rYBoZQdb1yzTp1CyN8p8LnLq6HnkjWayaK0qTK6-bAF8HAQ64u5S2nXNmwlCGzqQQDOmGmZIi9gBW-j0GQbDBE3EXsJrBg0dGbD5CB2fhG-IuQr1rF2vucW4Io_UA1J7IPBbnKjVR9tWgJnw1wobeoZ9rZ8dooFIwmX2aLo3sYG9Tv3CKFIwqHaGPInxYnlPz8dBWbqAXd3bac8Vp9O1kSJpIZALenzcABW23E0RWawLGm0tRdH0PKBunfz9_1Qh8j4aWw-mHEKEahjFtIRA4vE6OftFGKvIElwxP2bgQxoXosD9e7MU2fXFq6gJMz1PjITL7WzTrIXjcOv3bcT4Ld0DVw6LyaZ9zNKR1orwHCUGdgnnz7E0t7ZKMNQAhGJP9uM0qcM2rsmpfscS465y41J3ED9vYuNVDh5cEq_ITYMhfY6jnASKzoo2shmtZYpfBg_nyuulyXEOqmQZE19_10W4_Wi_uEckDZWlWHJTRk-TLbWw3e9ojZ3UbM4XGgiufbmUp_4DkqCIzqpBlNUUG8YyJ_h14rCRj5lGb9hpFXX1FNVeIxX7hCjxDqQPmN94bNngxPoCoBhtSQn46qEzoWMxw0kcff8iL7hXeUqIdGyt4MNgAhI-DNJWLVFlrELCwRcEjSkaKjAd1k7fjyzXlBSU9b4B69vyJo8qX8RQGe2aeBSLw0C8f9dyX8QJ2jA9MNp67PwRbsrve4Om8BQVLDSxSZYQMQ9H-ZZq78OwPNj6ypT6ChVYShaMXp_XzXYSuPvm1LhT_S_Qc3jy5PRoJOkvHg48wQLxaOu5flfhHHxQm-MBXT7C5f- -KgJoZwvxABi79aIlugy0WN89SCQLGjdAxUpdDRsvjJTxSjZgyHNn19NQnEBNJVaGs_yllaBsaMrrgAJwLGnj0TIDE2zMDuhceQh26zbPIRah75w6UwuBPqPSx1SuSiLyZPYRlFKs0k5LgYWKuBaIlNvE6u-YeSlCpolmAqFptLnEHmZoX77LqGXXcs9v3Juxo1jsSBVY7lByHziwRRV1OIhes_ghsmU_Q0utS8jzb1_HnxhZ_-JvrxEgITbwXhJkgB9-O9QZN0GOujevCLyi5jaY5qm-KHq6VMDVy0dH3ZPj8kPbgujLGQlQZhRDEjOIx5BpCu2B3LKqstJXklNKMJfHb_JCMdnrPhWlAYl3Ptw7K6_DcwNb_LIPclBclb1_qK603Nb9PbLvS_dExO94RQMLDfXLNtVmyAvt1fk9UWvyR9SuIlsaryQxBN2xomembix0eppxQz8wgyDkxV0_GDNhWZieGc8ghQaj3mDrmbGt35wuEPOSwY89tuV9vkN_pujKl1_YCSF8nVhjF0jVRpHCDamaA_FKtypTAyQuBwUt-4I73A0x9thT_oa7vxT-zA7ZdjC_UptlafqP9XVg8x77F3Fg38xTtE3NsXE-NONjyLUMAx2t_hSShSXZ6qqGExl9F4kdPdfvh-D0eU8P8Jzz_Bih_EUA-Mk-A34RFBtAuT3frjbt1mO7f3RM2FydMMl9Vn9wT-DyhSZ0QKUk-qN_28eCmEfuTzfAtwGv7BkelbziXUtSt4e0ypEo5F8mf6gxhO1kdll5Y-_YMkJIiRzjSyedik6Yu1Jmf4vyYSk0Mj14PxYf1jwjkCAtBTmXnM5SuAyCYsox_3m00]--></g></svg>